{"asset":{"version":"2.0","generator":"Jeopardish tiny trombonist fixture; offline authored from PR #62 geometry"},"scenes":[{"name":"AuxScene","nodes":[0]}],"scene":0,"nodes":[{"name":"VisualStadiumTrombonist","mesh":0,"children":[1,16],"skin":0},{"translation":[0,0.95,0],"name":"Hips","children":[2,10,11,12,14]},{"translation":[0,0.58,0],"name":"Spine","children":[3,4,7]},{"translation":[0,0.62,0],"name":"Head"},{"translation":[0.23,0.38,0],"name":"UpperArm_L","children":[5]},{"translation":[0.34,0,0],"name":"ForeArm_L","children":[6]},{"translation":[0.3,0,0],"name":"Hand_L"},{"translation":[-0.23,0.38,0],"name":"UpperArm_R","children":[8]},{"translation":[-0.34,0,0],"name":"ForeArm_R","children":[9]},{"translation":[-0.3,0,0],"name":"Hand_R"},{"translation":[0.32,0.93,0.42],"name":"IK_Target_L"},{"translation":[-0.24,0.9,0.58],"name":"IK_Target_R"},{"translation":[0.16,-0.04,0],"name":"Thigh_L","children":[13]},{"translation":[0,-0.48,0],"name":"Shin_L"},{"translation":[-0.16,-0.04,0],"name":"Thigh_R","children":[15]},{"translation":[0,-0.48,0],"name":"Shin_R"},{"translation":[0,1.78,0.34],"name":"Trombone","children":[17,18,19]},{"rotation":[0.7071067811865475,0,0,0.7071067811865476],"translation":[0,0,0.05],"mesh":1},{"rotation":[0.7071067811865475,0,0,0.7071067811865476],"translation":[0,0,0.62],"mesh":2},{"rotation":[0.7071067811865475,0,0,0.7071067811865476],"translation":[-0.22,-0.08,0.85],"name":"TromboneSlide","mesh":3}],"bufferViews":[{"buffer":0,"byteOffset":0,"byteLength":9504,"target":34962,"byteStride":12},{"buffer":0,"byteOffset":9504,"byteLength":9504,"target":34962,"byteStride":12},{"buffer":0,"byteOffset":19008,"byteLength":6336,"target":34962,"byteStride":8},{"buffer":0,"byteOffset":25344,"byteLength":6336,"target":34962,"byteStride":8},{"buffer":0,"byteOffset":31680,"byteLength":12672,"target":34962,"byteStride":16},{"buffer":0,"byteOffset":44352,"byteLength":9504,"target":34962,"byteStride":12},{"buffer":0,"byteOffset":53856,"byteLength":216,"target":34962,"byteStride":12},{"buffer":0,"byteOffset":54072,"byteLength":216,"target":34962,"byteStride":12},{"buffer":0,"byteOffset":54288,"byteLength":144,"target":34962,"byteStride":8},{"buffer":0,"byteOffset":54432,"byteLength":96,"target":34963},{"buffer":0,"byteOffset":54528,"byteLength":624,"target":34962,"byteStride":12},{"buffer":0,"byteOffset":55152,"byteLength":624,"target":34962,"byteStride":12},{"buffer":0,"byteOffset":55776,"byteLength":416,"target":34962,"byteStride":8},{"buffer":0,"byteOffset":56192,"byteLength":192,"target":34963},{"buffer":0,"byteOffset":56384,"byteLength":624,"target":34962,"byteStride":12},{"buffer":0,"byteOffset":57008,"byteLength":624,"target":34962,"byteStride":12},{"buffer":0,"byteOffset":57632,"byteLength":416,"target":34962,"byteStride":8},{"buffer":0,"byteOffset":58048,"byteLength":192,"target":34963},{"buffer":0,"byteOffset":58240,"byteLength":960},{"buffer":0,"byteOffset":59200,"byteLength":20},{"buffer":0,"byteOffset":59220,"byteLength":60},{"buffer":0,"byteOffset":59280,"byteLength":12},{"buffer":0,"byteOffset":59292,"byteLength":48},{"buffer":0,"byteOffset":59340,"byteLength":12},{"buffer":0,"byteOffset":59352,"byteLength":48},{"buffer":0,"byteOffset":59400,"byteLength":8},{"buffer":0,"byteOffset":59408,"byteLength":32},{"buffer":0,"byteOffset":59440,"byteLength":8},{"buffer":0,"byteOffset":59448,"byteLength":32},{"buffer":0,"byteOffset":59480,"byteLength":8},{"buffer":0,"byteOffset":59488,"byteLength":32},{"buffer":0,"byteOffset":59520,"byteLength":8},{"buffer":0,"byteOffset":59528,"byteLength":32},{"buffer":0,"byteOffset":59560,"byteLength":8},{"buffer":0,"byteOffset":59568,"byteLength":32},{"buffer":0,"byteOffset":59600,"byteLength":8},{"buffer":0,"byteOffset":59608,"byteLength":32},{"buffer":0,"byteOffset":59640,"byteLength":8},{"buffer":0,"byteOffset":59648,"byteLength":32}],"buffers":[{"byteLength":59680,"uri":"data:application/octet-stream;base64,"}],"accessors":[{"bufferView":0,"componentType":5126,"count":792,"max":[0.9900000095367432,2.575000047683716,0.27000001072883606],"min":[-0.9900000095367432,-0.12999999523162842,-0.23999999463558197],"type":"VEC3"},{"bufferView":1,"componentType":5126,"count":792,"max":[1,1,1],"min":[-1,-1,-1],"type":"VEC3"},{"bufferView":2,"componentType":5126,"count":792,"max":[1,1],"min":[0,0],"type":"VEC2"},{"bufferView":3,"componentType":5123,"count":792,"max":[14,0,0,0],"min":[0,0,0,0],"type":"VEC4"},{"bufferView":4,"componentType":5126,"count":792,"max":[1,0,0,0],"min":[1,0,0,0],"type":"VEC4"},{"bufferView":5,"componentType":5126,"count":792,"max":[0.8069522380828857,0.7835378050804138,0.715693473815918],"min":[0.007499032188206911,0.007499032188206911,0.007499032188206911],"type":"VEC3"},{"bufferView":6,"componentType":5126,"count":18,"max":[0.18000000715255737,0.17000000178813934,0.18000000715255737],"min":[-0.18000000715255737,-0.17000000178813934,-0.18000000715255737],"type":"VEC3"},{"bufferView":7,"componentType":5126,"count":18,"max":[0.9514445066452026,-0.30782029032707214,0.9514445066452026],"min":[-0.9514445066452026,-0.30782029032707214,-0.9514445066452026],"type":"VEC3"},{"bufferView":8,"componentType":5126,"count":18,"max":[1,1],"min":[0,0],"type":"VEC2"},{"bufferView":9,"componentType":5123,"count":48,"max":[17],"min":[0],"type":"SCALAR"},{"bufferView":10,"componentType":5126,"count":52,"max":[0.02500000037252903,0.550000011920929,0.02500000037252903],"min":[-0.02500000037252903,-0.550000011920929,-0.02500000037252903],"type":"VEC3"},{"bufferView":11,"componentType":5126,"count":52,"max":[1,1,1],"min":[-1,-1,-1],"type":"VEC3"},{"bufferView":12,"componentType":5126,"count":52,"max":[1,1],"min":[0,0],"type":"VEC2"},{"bufferView":13,"componentType":5123,"count":96,"max":[51],"min":[0],"type":"SCALAR"},{"bufferView":14,"componentType":5126,"count":52,"max":[0.017999999225139618,0.42500001192092896,0.017999999225139618],"min":[-0.017999999225139618,-0.42500001192092896,-0.017999999225139618],"type":"VEC3"},{"bufferView":15,"componentType":5126,"count":52,"max":[1,1,1],"min":[-1,-1,-1],"type":"VEC3"},{"bufferView":16,"componentType":5126,"count":52,"max":[1,1],"min":[0,0],"type":"VEC2"},{"bufferView":17,"componentType":5123,"count":96,"max":[51],"min":[0],"type":"SCALAR"},{"bufferView":18,"componentType":5126,"count":15,"max":[1,0,0,0,0,1,0,0,0,0,1,0,0.8700000047683716,-0.4300000071525574,0,1],"min":[1,0,0,0,0,1,0,0,0,0,1,0,-0.8700000047683716,-2.1500000953674316,-0.5799999833106995,1],"type":"MAT4"},{"bufferView":19,"componentType":5126,"count":5,"max":[1],"min":[0],"type":"SCALAR"},{"bufferView":20,"componentType":5126,"count":5,"max":[0,1.0099999904632568,0],"min":[0,0.949999988079071,0],"type":"VEC3"},{"bufferView":21,"componentType":5126,"count":3,"max":[1],"min":[0],"type":"SCALAR"},{"bufferView":22,"componentType":5126,"count":3,"max":[0.18885889649391174,0,0,0.9820042252540588],"min":[-0.18885889649391174,0,0,0.9820042252540588],"type":"VEC4"},{"bufferView":23,"componentType":5126,"count":3,"max":[1],"min":[0],"type":"SCALAR"},{"bufferView":24,"componentType":5126,"count":3,"max":[0.18885889649391174,0,0,0.9820042252540588],"min":[-0.18885889649391174,0,0,0.9820042252540588],"type":"VEC4"},{"bufferView":25,"componentType":5126,"count":2,"max":[1],"min":[0],"type":"SCALAR"},{"bufferView":26,"componentType":5126,"count":2,"max":[0,0,0,1],"min":[0,0,0,1],"type":"VEC4"},{"bufferView":27,"componentType":5126,"count":2,"max":[1],"min":[0],"type":"SCALAR"},{"bufferView":28,"componentType":5126,"count":2,"max":[-0.1669670194387436,0.06305022537708282,-0.23404189944267273,0.9557045102119446],"min":[-0.1669670194387436,0.06305022537708282,-0.23404189944267273,0.9557045102119446],"type":"VEC4"},{"bufferView":29,"componentType":5126,"count":2,"max":[1],"min":[0],"type":"SCALAR"},{"bufferView":30,"componentType":5126,"count":2,"max":[0,0,0,1],"min":[0,0,0,1],"type":"VEC4"},{"bufferView":31,"componentType":5126,"count":2,"max":[1],"min":[0],"type":"SCALAR"},{"bufferView":32,"componentType":5126,"count":2,"max":[0,0,0,1],"min":[0,0,0,1],"type":"VEC4"},{"bufferView":33,"componentType":5126,"count":2,"max":[1],"min":[0],"type":"SCALAR"},{"bufferView":34,"componentType":5126,"count":2,"max":[-0.1669670194387436,-0.06305022537708282,0.23404189944267273,0.9557045102119446],"min":[-0.1669670194387436,-0.06305022537708282,0.23404189944267273,0.9557045102119446],"type":"VEC4"},{"bufferView":35,"componentType":5126,"count":2,"max":[1],"min":[0],"type":"SCALAR"},{"bufferView":36,"componentType":5126,"count":2,"max":[0,0,0,1],"min":[0,0,0,1],"type":"VEC4"},{"bufferView":37,"componentType":5126,"count":2,"max":[1],"min":[0],"type":"SCALAR"},{"bufferView":38,"componentType":5126,"count":2,"max":[0,0,0,1],"min":[0,0,0,1],"type":"VEC4"}],"materials":[{"pbrMetallicRoughness":{"metallicFactor":0,"roughnessFactor":0.75}},{"pbrMetallicRoughness":{"baseColorFactor":[0.6653872982754769,0.3813260114221238,0.02732089163382382,1],"metallicFactor":0.82,"roughnessFactor":0.28}}],"meshes":[{"primitives":[{"mode":4,"attributes":{"POSITION":0,"NORMAL":1,"TEXCOORD_0":2,"JOINTS_0":3,"WEIGHTS_0":4,"COLOR_0":5},"material":0}]},{"primitives":[{"mode":4,"attributes":{"POSITION":6,"NORMAL":7,"TEXCOORD_0":8},"indices":9,"material":1}]},{"primitives":[{"mode":4,"attributes":{"POSITION":10,"NORMAL":11,"TEXCOORD_0":12},"indices":13,"material":1}]},{"primitives":[{"mode":4,"attributes":{"POSITION":14,"NORMAL":15,"TEXCOORD_0":16},"indices":17,"material":1}]}],"skins":[{"inverseBindMatrices":18,"joints":[1,2,3,4,5,6,10,7,8,9,11,12,13,14,15],"skeleton":1}],"animations":[{"name":"march","samplers":[{"input":19,"output":20,"interpolation":"LINEAR"},{"input":21,"output":22,"interpolation":"LINEAR"},{"input":23,"output":24,"interpolation":"LINEAR"}],"channels":[{"sampler":0,"target":{"node":1,"path":"translation"}},{"sampler":1,"target":{"node":12,"path":"rotation"}},{"sampler":2,"target":{"node":14,"path":"rotation"}}]},{"name":"play-instrument","samplers":[{"input":25,"output":26,"interpolation":"LINEAR"},{"input":27,"output":28,"interpolation":"LINEAR"},{"input":29,"output":30,"interpolation":"LINEAR"},{"input":31,"output":32,"interpolation":"LINEAR"},{"input":33,"output":34,"interpolation":"LINEAR"},{"input":35,"output":36,"interpolation":"LINEAR"},{"input":37,"output":38,"interpolation":"LINEAR"}],"channels":[{"sampler":0,"target":{"node":2,"path":"rotation"}},{"sampler":1,"target":{"node":4,"path":"rotation"}},{"sampler":2,"target":{"node":5,"path":"rotation"}},{"sampler":3,"target":{"node":6,"path":"rotation"}},{"sampler":4,"target":{"node":7,"path":"rotation"}},{"sampler":5,"target":{"node":8,"path":"rotation"}},{"sampler":6,"target":{"node":9,"path":"rotation"}}]}]}
