<?xml version="1.0" standalone="no"?>
<!DOCTYPE svg PUBLIC "-//W3C//DTD SVG 20010904//EN"
 "http://www.w3.org/TR/2001/REC-SVG-20010904/DTD/svg10.dtd">
<svg version="1.0" xmlns="http://www.w3.org/2000/svg"
 width="1920.000000pt" height="1080.000000pt" viewBox="0 0 1920.000000 1080.000000"
 preserveAspectRatio="xMidYMid meet">

<g transform="translate(0.000000,1080.000000) scale(0.100000,-0.100000)"
fill="#000000" stroke="none">
<path d="M0 10519 c0 -236 2 -283 15 -295 8 -9 15 -12 15 -8 0 4 25 -19 55
-51 30 -32 53 -60 51 -62 -2 -3 4 -13 14 -23 18 -18 22 -53 24 -232 1 -31 4
-60 9 -64 4 -4 7 -91 7 -193 0 -102 3 -217 7 -256 l7 -70 12 40 13 40 -1 -55
c-1 -65 0 -316 1 -345 1 -22 8 -524 15 -945 2 -146 8 -308 14 -360 7 -52 12
-184 12 -292 0 -201 3 -230 23 -222 9 3 11 -9 9 -41 -3 -28 0 -45 7 -45 7 0
10 -28 9 -82 -1 -46 -3 -64 -5 -40 -3 28 -9 42 -19 42 -20 0 -19 40 -22 -861
-2 -339 0 -624 4 -633 5 -13 9 -14 14 -6 4 7 12 10 18 6 13 -8 14 -266 1 -266
-5 0 -9 -5 -9 -11 0 -5 4 -7 10 -4 6 4 10 -484 10 -1412 l0 -1419 -160 -79
-160 -80 0 -1097 0 -1098 9600 0 9600 0 0 5400 0 5400 -1132 0 -1133 -1 -25
-41 c-26 -43 -120 -119 -180 -145 -49 -22 -146 -20 -194 3 -34 17 -41 27 -58
79 -10 33 -16 70 -13 83 l5 22 -685 0 c-646 0 -685 -1 -685 -17 1 -10 9 -54
20 -98 10 -44 17 -81 15 -84 -2 -2 -45 23 -95 55 -50 33 -110 71 -133 86 -96
61 -74 58 -422 58 l-321 0 -12 -61 c-22 -119 -102 -253 -172 -289 -38 -19 -62
-14 -87 18 -14 17 -18 144 -6 156 4 4 8 15 8 24 1 31 27 112 35 107 4 -2 12 6
18 19 l11 24 -166 2 c-139 1 -165 -1 -160 -13 7 -19 -19 -94 -26 -76 -4 11
-10 9 -25 -8 -25 -29 -32 -29 -24 -1 4 17 2 20 -12 15 -12 -5 -16 -3 -13 5 2
7 10 12 16 11 6 -2 10 0 10 5 -3 19 3 56 8 44 2 -6 9 -10 14 -6 5 3 7 10 4 15
-4 5 -2616 9 -6796 9 l-6789 0 0 -281z m13594 101 c14 -5 26 -14 26 -20 0 -14
-66 -13 -93 2 l-22 12 25 7 c36 10 36 10 64 -1z m-3214 -60 c0 -5 -5 -32 -11
-60 -11 -52 -26 -62 -53 -35 -13 14 -13 20 1 60 12 37 19 45 39 45 13 0 24 -4
24 -10z m-6153 -146 c-3 -3 -12 -4 -19 -1 -8 3 -5 6 6 6 11 1 17 -2 13 -5z
m83 -36 c0 -7 12 -29 26 -50 22 -31 24 -40 14 -53 -13 -15 -41 -21 -39 -7 1 4
1 14 0 22 -1 12 -3 12 -9 2 -6 -9 -12 -6 -20 13 -7 16 -8 25 -1 25 6 0 6 7 -1
20 -6 11 -8 25 -5 30 9 14 35 12 35 -2z m-104 -54 c13 -14 31 -38 39 -55 15
-29 15 -29 -14 -29 -37 0 -69 26 -80 67 -8 26 -6 33 7 36 10 3 19 5 21 6 2 0
14 -10 27 -25z m5550 -141 c15 -27 30 -50 34 -53 4 -3 15 -21 25 -40 10 -18
23 -40 29 -46 6 -7 29 -42 51 -78 24 -39 51 -69 68 -77 15 -6 27 -15 27 -20 0
-5 5 -9 11 -9 16 0 80 -51 74 -60 -2 -4 -68 -51 -147 -105 l-142 -99 -170 88
c-94 49 -211 109 -260 133 -86 44 -88 46 -70 63 33 32 429 350 436 350 3 0 19
-21 34 -47z m419 -44 c30 -11 68 -30 83 -42 15 -12 36 -27 46 -33 11 -6 22
-16 24 -22 7 -21 -60 -14 -167 17 -153 44 -217 88 -125 87 25 -1 48 2 51 7 7
12 29 8 88 -14z m-9995 -49 c8 -5 11 -10 5 -10 -5 0 -17 5 -25 10 -8 5 -10 10
-5 10 6 0 17 -5 25 -10z m10090 -151 c0 -8 -30 -33 -33 -28 -19 24 -47 68 -47
73 0 4 18 -4 40 -16 22 -13 40 -26 40 -29z m-6224 -129 c24 0 32 -14 14 -25
-5 -3 -10 -1 -10 4 0 6 -9 11 -20 11 -14 0 -20 6 -19 23 1 16 2 18 6 5 3 -11
14 -18 29 -18z m3356 11 c7 -77 5 -81 -46 -61 -31 11 -35 31 -6 25 16 -3 20 2
20 24 0 30 29 41 32 12z m-3292 -11 c13 -8 13 -10 -2 -10 -9 0 -20 5 -23 10
-8 13 5 13 25 0z m-10 -24 c0 -2 -7 -7 -16 -10 -8 -3 -12 -2 -9 4 6 10 25 14
25 6z m17 -18 c-3 -8 -6 -5 -6 6 -1 11 2 17 5 13 3 -3 4 -12 1 -19z m3340 -40
c-3 -7 -5 -2 -5 12 0 14 2 19 5 13 2 -7 2 -19 0 -25z m8 -280 c50 -44 58 -84
19 -98 -54 -21 -202 23 -260 77 -26 24 -32 64 -11 81 41 34 184 0 252 -60z
m7851 -189 c39 -37 27 -135 -24 -193 -27 -30 -133 -76 -175 -76 -99 0 -144 78
-98 168 30 59 102 120 147 125 73 9 124 1 150 -24z m-4587 -68 c10 -7 11 -13
2 -30 -7 -11 -9 -21 -6 -21 3 0 0 -6 -7 -14 -29 -31 -58 13 -33 50 17 26 23
28 44 15z m61 -102 c-23 -31 -28 -33 -49 -20 -11 7 -10 14 8 40 19 26 25 29
42 20 19 -10 19 -10 -1 -40z m1640 -39 c25 -15 46 -33 48 -41 1 -8 -11 -30
-27 -49 l-29 -35 -24 23 c-38 34 -44 26 -9 -13 25 -29 29 -39 21 -60 -7 -19
-6 -23 5 -18 8 3 12 10 8 17 -4 6 1 5 10 -3 9 -7 14 -17 11 -22 -3 -5 -2 -8 3
-7 9 3 73 -43 73 -53 0 -9 -218 -421 -229 -432 -8 -8 -264 93 -311 123 -12 7
11 59 130 297 80 158 153 303 163 320 l19 33 46 -27 c26 -15 67 -39 92 -53z
m259 34 c-6 -8 -8 -14 -4 -14 4 0 2 -7 -5 -15 -7 -8 -16 -13 -20 -10 -5 3 -10
0 -12 -7 -3 -9 -9 -8 -21 4 -24 24 -21 41 11 59 33 19 71 7 51 -17z m51 -49
c0 -21 -51 -58 -64 -45 -7 7 -2 19 19 39 30 29 45 31 45 6z m-3491 -92 c12 3
21 1 21 -4 0 -5 -7 -9 -16 -9 -8 0 -12 -4 -9 -10 9 -15 -3 -30 -20 -24 -17 7
-26 30 -18 50 4 12 8 13 13 3 5 -6 17 -9 29 -6z m297 -68 c21 -85 -81 -246
-131 -205 -20 17 -20 92 1 133 42 84 117 125 130 72z m-320 -33 c-4 -3 -14 2
-24 12 -16 18 -16 18 6 6 13 -6 21 -14 18 -18z m-1089 -153 c114 -39 211 -74
216 -78 4 -4 -10 -18 -30 -32 -21 -14 -76 -51 -122 -83 l-83 -58 -167 51 c-91
29 -190 60 -220 70 l-54 17 54 46 c123 105 165 137 181 137 9 1 110 -31 225
-70z m10188 5 c18 -18 12 -48 -14 -78 -57 -64 -193 -77 -208 -18 -8 32 4 50
53 84 31 22 51 27 96 28 39 0 62 -5 73 -16z m-10961 -175 c-15 -16 -35 -29
-43 -29 -9 0 0 15 24 40 22 23 41 36 43 30 3 -7 -8 -25 -24 -41z m96 32 c0
-34 -110 -141 -145 -141 -28 0 36 86 98 131 47 34 47 34 47 10z m2170 -200 c0
-5 8 -11 18 -13 11 -2 13 -6 6 -10 -6 -4 -19 1 -29 12 -10 12 -13 20 -7 20 7
0 12 -4 12 -9z m256 -39 c30 -19 -45 -172 -90 -180 -13 -3 -16 5 -16 38 0 49
22 97 58 127 30 25 32 26 48 15z m-3162 -59 c30 -14 36 -23 42 -60 3 -23 4
-53 0 -67 -12 -48 -93 -74 -146 -46 -26 14 -50 62 -50 100 0 21 10 40 30 60
35 35 72 38 124 13z m5339 -84 c35 -27 52 -90 35 -126 -40 -83 -152 -59 -165
34 -11 86 67 142 130 92z m-1418 -79 c16 -27 33 -50 37 -50 4 0 8 -4 8 -10 0
-5 34 -62 75 -125 41 -64 75 -119 75 -124 0 -4 -37 -18 -82 -30 -46 -12 -128
-36 -182 -53 l-99 -31 -28 34 c-62 75 -210 302 -202 309 7 7 346 128 363 129
3 1 19 -21 35 -49z m4693 -66 c29 -20 28 -49 -3 -79 -37 -38 -45 -31 -45 35 0
65 8 72 48 44z m-78 -50 c0 -56 0 -56 -22 -42 -31 20 -33 48 -8 76 11 12 23
22 25 22 3 0 5 -25 5 -56z m-5092 -200 c26 -7 52 -51 52 -87 0 -35 -46 -77
-84 -77 -47 1 -86 40 -86 88 0 27 36 70 63 75 12 2 24 5 27 6 3 0 15 -2 28 -5z
m-1278 -193 c10 -24 9 -35 -4 -63 -17 -36 -51 -62 -66 -53 -11 7 -14 104 -4
129 4 9 18 16 34 16 21 0 30 -7 40 -29z m-100 -57 c0 -27 -4 -43 -10 -39 -17
11 -11 85 7 85 2 0 3 -21 3 -46z m-1604 4 c13 -42 -57 -78 -86 -43 -16 19 -5
63 18 67 31 7 61 -4 68 -24z m5954 -39 c0 -36 -2 -39 -28 -39 -51 0 -71 46
-31 73 35 25 59 11 59 -34z m-3100 -20 c0 -5 -7 -9 -15 -9 -15 0 -20 12 -9 23
8 8 24 -1 24 -14z m-171 -46 c0 -31 -2 -34 -9 -18 -12 28 -12 55 0 55 6 0 10
-17 9 -37z m65 -53 c6 -32 -8 -47 -29 -30 -9 8 -15 29 -15 59 l0 46 19 -25
c11 -13 22 -36 25 -50z m-4544 23 c112 -36 405 -119 487 -137 39 -9 83 -20 98
-26 l27 -10 -3 -1400 -2 -1400 -31 -5 c-17 -2 -128 -18 -246 -35 -118 -17
-266 -40 -329 -50 -62 -11 -120 -20 -127 -20 -11 0 -13 270 -14 1561 l0 1561
32 -7 c18 -4 67 -19 108 -32z m2848 -70 c4 -30 -41 -61 -63 -43 -33 27 -9 73
35 68 17 -2 26 -10 28 -25z m3372 -158 c15 -18 7 -43 -16 -52 -21 -8 -56 31
-47 52 7 19 47 19 63 0z m-2442 -28 c5 -23 -15 -47 -40 -47 -24 0 -33 23 -18
50 14 26 53 24 58 -3z m-7642 -58 c68 -20 72 -23 68 -48 -2 -14 -6 -380 -8
-812 -3 -433 -8 -799 -12 -814 -4 -15 -17 -30 -31 -36 -13 -5 -22 -13 -18 -18
9 -15 -26 -16 -248 -11 -208 5 -208 5 -227 30 -18 23 -19 49 -22 360 -2 184
-7 343 -12 353 -8 17 -4 18 55 11 35 -3 82 -9 104 -13 l40 -7 -4 -230 c-2
-127 0 -245 4 -262 8 -38 47 -62 100 -62 20 0 35 -5 35 -12 0 -6 13 1 28 16
l29 27 7 332 c3 183 9 531 13 775 4 310 9 442 17 442 6 0 43 -9 82 -21z m434
-114 c80 -14 161 -29 180 -33 l35 -8 -4 -314 c-2 -173 -5 -317 -6 -318 -2 -2
-36 1 -77 7 -40 6 -102 12 -138 14 -36 2 -71 6 -76 10 -8 4 -12 -33 -13 -119
-2 -111 0 -129 19 -158 11 -19 28 -37 36 -40 9 -4 70 -12 135 -18 l119 -12 0
-89 c0 -72 -3 -88 -14 -84 -7 3 -69 7 -135 8 -154 3 -156 2 -166 -109 -7 -82
-2 -145 15 -172 7 -12 41 -16 152 -20 l143 -5 0 -82 0 -83 -200 0 c-180 0
-203 2 -231 19 -19 11 -36 33 -43 53 -14 44 -18 677 -7 1169 l9 387 31 15 c34
17 29 18 236 -18z m7996 20 c7 -18 -13 -45 -33 -45 -19 0 -28 27 -13 45 16 19
39 19 46 0z m822 3 c14 -14 16 -45 2 -53 -15 -9 -50 14 -50 34 0 31 25 42 48
19z m-8347 -132 c46 -13 113 -32 148 -41 39 -10 75 -27 92 -43 l28 -26 -3
-676 c-1 -372 -5 -681 -10 -688 -4 -7 -13 -12 -20 -12 -7 0 -25 -9 -38 -20
-24 -18 -34 -19 -163 -11 -125 8 -139 10 -161 32 -13 13 -26 40 -29 59 -7 51
-10 829 -4 1144 5 266 5 269 28 287 29 24 32 24 132 -5z m526 -127 c70 -17
136 -33 146 -36 29 -8 78 -61 88 -96 12 -43 12 -779 -1 -811 -6 -16 -17 -26
-29 -26 -11 0 -23 -5 -26 -11 -5 -7 -41 -8 -111 -3 l-105 7 3 -206 3 -205 -53
-4 c-30 -2 -58 0 -63 3 -6 3 -11 280 -12 712 -2 657 -1 707 15 707 9 0 74 -14
145 -31z m511 -115 c53 -12 73 -21 77 -35 4 -10 12 -19 20 -19 18 0 27 -51 40
-230 24 -348 48 -658 60 -778 8 -78 15 -158 15 -178 l0 -35 -67 3 -68 3 -7 75
c-3 41 -8 126 -10 187 -3 107 -4 113 -24 113 -12 0 -42 3 -67 6 -43 6 -45 5
-50 -22 -4 -16 -8 -63 -11 -104 -13 -176 -18 -226 -22 -242 -4 -15 -17 -18
-71 -18 l-66 0 7 113 c4 61 14 148 21 192 8 44 15 107 15 140 0 33 4 98 10
145 5 47 14 207 20 355 6 149 16 282 21 296 7 17 22 30 42 37 43 14 36 14 115
-4z m372 -74 c178 -32 221 -51 239 -103 8 -20 11 -141 11 -341 0 -295 -1 -311
-19 -330 -20 -19 -20 -20 1 -49 22 -30 47 -191 48 -304 l0 -53 -54 0 c-63 0
-63 -1 -71 105 -4 39 -10 99 -15 135 -5 36 -10 69 -10 73 0 12 -65 37 -95 37
-29 0 -28 7 -25 -211 l1 -136 -48 -6 c-26 -3 -50 -3 -52 -1 -2 2 -4 273 -5
604 -1 528 1 599 14 596 8 -2 44 -9 80 -16z m10325 10 c-4 -6 5 -10 20 -10 17
0 24 -4 19 -11 -3 -6 0 -15 7 -20 11 -7 9 -9 -6 -9 -18 0 -17 -2 5 -13 14 -7
26 -21 28 -32 5 -30 31 -45 63 -38 25 5 28 3 22 -12 -4 -13 -3 -16 5 -11 7 4
12 15 12 24 0 15 2 15 10 2 6 -10 6 -16 0 -18 -6 -2 -10 -8 -10 -13 0 -6 4 -8
9 -5 12 8 21 -18 14 -43 -3 -12 0 -27 6 -35 9 -11 4 -15 -31 -20 -78 -10 -409
-29 -415 -23 -5 6 -5 125 2 177 1 14 3 35 4 48 2 46 83 60 138 25 18 -12 23
-12 30 0 4 8 22 21 38 30 36 19 38 20 30 7z m-9859 -93 c67 -13 129 -30 138
-38 48 -41 46 -25 46 -317 0 -152 0 -369 1 -482 1 -249 2 -225 -17 -244 -12
-13 -41 -16 -149 -16 l-134 0 -5 43 c-9 67 -16 1077 -8 1077 4 0 62 -11 128
-23z m333 -63 c2 -2 6 -137 9 -300 5 -329 4 -324 73 -324 l39 0 0 273 c1 345
0 333 31 329 71 -8 64 45 67 -501 l3 -490 -30 -15 c-23 -12 -45 -14 -102 -8
l-73 7 -3 53 -3 52 55 0 56 0 -3 93 -3 92 -74 6 c-53 4 -77 10 -86 22 -7 9
-17 17 -23 17 -20 0 -23 38 -25 378 l-2 334 45 -7 c25 -4 47 -9 49 -11z m357
-54 c12 0 14 -58 14 -340 l0 -340 -22 -4 c-13 -2 -33 -4 -45 -4 l-22 -1 -3
272 c-2 150 -2 307 0 351 l3 78 31 -6 c17 -3 37 -6 44 -6z m8854 -35 c0 -5 -5
-3 -10 5 -5 8 -10 20 -10 25 0 6 5 3 10 -5 5 -8 10 -19 10 -25z m-5105 -137
c7 -8 6 -9 -2 -4 -9 5 -11 2 -7 -8 6 -16 26 -23 22 -8 -3 8 5 12 31 12 12 0
26 -16 42 -49 19 -41 27 -49 48 -48 21 2 27 -3 29 -25 l3 -27 -88 5 c-48 3
-112 7 -140 10 l-53 5 0 42 c0 23 3 58 6 77 6 35 6 35 52 32 26 -2 52 -9 57
-14z m5643 -3 c3 -2 7 -87 10 -189 l5 -184 -29 -6 c-25 -4 -364 -10 -431 -7
-16 1 -23 7 -23 21 0 11 6 20 13 20 9 0 9 2 0 8 -12 7 -13 116 -1 128 4 4 5
32 2 63 -6 54 -5 57 26 76 17 11 36 19 42 17 13 -4 78 29 78 39 0 4 30 7 68 7
37 1 92 6 122 11 51 9 107 7 118 -4z m-8011 -47 c-3 -8 -6 -5 -6 6 -1 11 2 17
5 13 3 -3 4 -12 1 -19z m2693 -8 c0 -5 -9 -10 -21 -10 -11 0 -17 5 -14 10 3 6
13 10 21 10 8 0 14 -4 14 -10z m-180 -15 c0 -8 -4 -15 -10 -15 -5 0 -10 7 -10
15 0 8 5 15 10 15 6 0 10 -7 10 -15z m-2513 -57 c-3 -7 -5 -2 -5 12 0 14 2 19
5 13 2 -7 2 -19 0 -25z m8330 -6 c-1 -25 -27 -50 -27 -27 0 13 18 43 27 45 1
0 1 -8 0 -18z m-37 -2 c0 -5 -10 -10 -22 -9 -22 0 -22 1 -3 9 11 5 21 9 23 9
1 1 2 -3 2 -9z m-8293 -47 c-3 -10 -5 -4 -5 12 0 17 2 24 5 18 2 -7 2 -21 0
-30z m8293 23 c0 -2 -9 -6 -20 -9 -11 -3 -18 -1 -14 4 5 9 34 13 34 5z m-77
-31 c-8 -22 -22 -18 -16 5 3 11 9 17 14 15 4 -3 6 -12 2 -20z m-5511 -62 c8
-10 3 -13 -20 -13 -27 0 -30 3 -28 26 4 35 30 51 34 21 2 -12 9 -28 14 -34z
m-205 37 l33 0 0 -80 0 -80 -127 6 c-71 3 -134 7 -141 10 -9 3 -12 25 -11 80
l2 77 105 -7 c58 -3 120 -6 139 -6z m4856 3 c-7 -2 -21 -2 -30 0 -10 3 -4 5
12 5 17 0 24 -2 18 -5z m55 -10 c2 -7 -1 -13 -8 -13 -6 0 -9 4 -5 9 3 5 -3 12
-12 15 -15 4 -15 5 1 3 11 -1 21 -8 24 -14z m842 -21 c0 -5 -7 -9 -15 -9 -8 0
-15 4 -15 9 0 4 7 8 15 8 8 0 15 -4 15 -8z m-155 -12 c3 -5 1 -10 -4 -10 -6 0
-11 5 -11 10 0 6 2 10 4 10 3 0 8 -4 11 -10z m45 -11 c0 -5 -4 -9 -10 -9 -5 0
-10 7 -10 16 0 8 5 12 10 9 6 -3 10 -10 10 -16z m-2306 -24 c-4 -8 -1 -15 6
-15 6 0 8 -5 5 -10 -4 -6 -11 -8 -16 -5 -12 8 -12 45 1 45 5 0 7 -7 4 -15z
m506 -7 c0 -19 -2 -20 -10 -8 -13 19 -13 30 0 30 6 0 10 -10 10 -22z m1103 -8
c-3 -11 -7 -20 -9 -20 -2 0 -4 9 -4 20 0 11 4 20 9 20 5 0 7 -9 4 -20z m32
-18 c-3 -3 -11 0 -18 7 -9 10 -8 11 6 5 10 -3 15 -9 12 -12z m-1256 -72 l0
-70 -75 0 c-80 0 -81 1 -76 65 5 65 13 70 109 74 l42 1 0 -70z m1218 38 c-3
-8 -6 -5 -6 6 -1 11 2 17 5 13 3 -3 4 -12 1 -19z m-5903 -8 c-7 -7 -19 -7 -35
-1 -23 9 -22 10 11 10 23 1 31 -2 24 -9z m5946 -10 c0 -5 -4 -10 -10 -10 -5 0
-10 5 -10 10 0 6 5 10 10 10 6 0 10 -4 10 -10z m-4784 -27 c4 -10 8 -21 9 -25
2 -5 3 -9 5 -10 1 -2 3 -11 5 -20 3 -15 -4 -18 -34 -18 -30 0 -37 4 -38 21 -4
53 35 91 53 52z m6825 -10 c-12 -20 -14 -14 -5 12 4 9 9 14 11 11 3 -2 0 -13
-6 -23z m-6991 -104 l0 -79 -87 0 c-49 0 -112 3 -141 7 l-53 6 2 63 c1 35 5
67 8 72 9 15 35 17 157 14 l114 -3 0 -80z m6980 75 c0 -2 -9 -4 -21 -4 -11 0
-18 4 -14 10 5 8 35 3 35 -6z m-8796 -4 c23 -8 25 -14 25 -75 l0 -66 -72 3
-72 3 -3 73 -3 72 50 0 c27 0 61 -4 75 -10z m8946 -35 c0 -8 -4 -15 -10 -15
-5 0 -7 7 -4 15 4 8 8 15 10 15 2 0 4 -7 4 -15z m-2266 -19 c-5 -14 -9 -15
-15 -5 -5 8 -3 17 4 21 15 9 19 4 11 -16z m630 -184 l4 -192 -154 0 -154 0
-14 34 c-11 26 -27 39 -74 61 -55 25 -88 55 -61 55 6 0 9 6 6 14 -3 7 0 19 6
25 9 9 8 11 -4 6 -13 -5 -15 3 -12 47 5 93 7 103 22 100 60 -13 74 -14 68 -5
-3 5 3 17 15 27 17 15 45 19 171 22 83 2 153 7 156 9 15 16 21 -29 25 -203z
m111 190 c-3 -3 -11 0 -18 7 -9 10 -8 11 6 5 10 -3 15 -9 12 -12z m-6929 -19
c-10 -10 -19 5 -10 18 6 11 8 11 12 0 2 -7 1 -15 -2 -18z m8534 -32 c0 -6 -4
-13 -10 -16 -5 -3 -10 -2 -10 4 0 5 -10 12 -22 14 -17 3 -14 5 10 6 17 0 32
-3 32 -8z m-2262 -12 c-10 -5 -15 -16 -11 -25 4 -10 -2 -17 -16 -21 -11 -3
-22 -13 -22 -22 -1 -14 -2 -13 -6 2 -2 9 -10 17 -18 17 -20 0 -7 36 18 48 12
6 33 11 47 11 21 0 22 -1 8 -10z m-8879 -5 c29 -6 31 -9 31 -53 l0 -46 -37 0
c-37 0 -38 1 -43 45 -8 64 -7 65 49 54z m11188 0 c-3 -3 -12 -4 -19 -1 -8 3
-5 6 6 6 11 1 17 -2 13 -5z m-407 -8 c0 -2 -7 -7 -16 -10 -8 -3 -12 -2 -9 4 6
10 25 14 25 6z m235 -6 c3 -5 1 -10 -4 -10 -6 0 -11 5 -11 10 0 6 2 10 4 10 3
0 8 -4 11 -10z m-6916 -26 c4 -5 11 -23 14 -40 5 -26 2 -33 -13 -37 -41 -11
-60 3 -60 43 0 37 10 49 38 45 7 0 16 -5 21 -11z m3518 -54 l1 -70 -77 0 -76
0 2 62 c2 34 8 65 13 68 6 4 39 8 74 9 l63 2 0 -71z m3350 48 c-3 -8 -6 -5 -6
6 -1 11 2 17 5 13 3 -3 4 -12 1 -19z m56 6 c11 -11 -13 -45 -26 -37 -8 4 -7 1
1 -9 13 -17 42 -14 42 3 0 5 5 9 12 9 9 0 9 -3 0 -12 -7 -7 -8 -17 -1 -30 8
-15 6 -18 -13 -18 -13 0 -28 4 -34 8 -15 10 -27 62 -15 62 6 0 8 7 5 15 -6 15
16 22 29 9z m-5125 -50 c41 -7 44 -9 22 -15 -15 -4 -18 -7 -8 -8 9 -1 20 -6
24 -13 5 -8 -2 -9 -25 -5 -18 4 -30 3 -27 -2 3 -4 -13 -8 -34 -9 -41 -2 -53
11 -22 23 16 7 15 8 -3 15 -11 5 -14 9 -7 9 6 1 12 9 12 19 0 27 14 37 18 13
3 -15 14 -22 50 -27z m4977 37 c3 -5 1 -12 -4 -15 -5 -3 -11 1 -15 9 -6 16 9
21 19 6z m55 -15 c13 -15 20 -32 17 -40 -4 -9 -2 -16 3 -16 6 0 10 -11 10 -25
0 -17 -5 -25 -17 -24 -11 0 -13 3 -5 6 14 6 16 33 2 33 -6 0 -8 11 -4 25 8 33
-21 34 -48 3 -12 -15 -30 -22 -53 -22 -25 0 -32 -3 -24 -12 6 -8 5 -14 -7 -18
-31 -12 -35 -6 -15 23 13 18 19 36 15 48 -6 15 -4 16 7 6 22 -21 54 -15 69 12
17 31 21 31 50 1z m160 -1 c0 -14 -4 -25 -9 -25 -5 0 -8 11 -8 25 0 14 3 25 8
25 5 0 9 -11 9 -25z m-3165 -15 c4 -6 -5 -10 -20 -10 -15 0 -24 4 -20 10 3 6
12 10 20 10 8 0 17 -4 20 -10z m890 0 c3 -5 1 -10 -4 -10 -6 0 -11 5 -11 10 0
6 2 10 4 10 3 0 8 -4 11 -10z m-6288 -20 c-1 -11 -5 -20 -9 -20 -10 0 -10 4
-2 24 8 22 13 20 11 -4z m4826 1 c3 -13 1 -18 -9 -14 -7 2 -10 11 -7 19 7 19
10 18 16 -5z m-3423 -71 l0 -80 -140 0 -140 0 0 80 0 80 140 0 140 0 0 -80z
m2580 64 c0 -16 16 -19 25 -4 3 6 1 10 -6 10 -7 0 -10 2 -7 5 3 3 24 -2 47
-11 38 -15 41 -19 41 -53 -1 -29 -2 -33 -11 -18 -5 9 -7 22 -4 27 3 6 1 10 -4
10 -6 0 -11 -11 -11 -25 0 -18 7 -28 25 -35 23 -9 25 -14 25 -80 l0 -70 -44 0
c-25 0 -48 5 -51 10 -3 6 -12 10 -18 10 -7 0 -6 -4 3 -10 11 -7 8 -10 -16 -10
-18 0 -38 7 -45 17 -12 15 -12 16 4 10 12 -5 17 -1 17 13 0 12 -7 20 -18 20
-14 0 -17 8 -17 40 0 22 3 40 8 40 5 0 5 10 2 21 -6 16 -4 20 6 14 8 -5 6 1
-3 12 -20 22 -24 53 -7 53 5 0 8 3 6 8 -3 4 8 7 24 8 18 1 29 -4 29 -12z
m-518 -26 c-8 -8 -9 -4 -5 13 4 13 8 18 11 10 2 -7 -1 -18 -6 -23z m840 12
c35 3 65 -1 51 -7 -19 -7 -16 -70 3 -77 15 -6 15 -8 -1 -32 l-17 -26 31 7 c31
6 31 6 31 -33 0 -36 -2 -40 -30 -44 -16 -3 -34 0 -40 6 -7 7 -10 6 -10 -2 0
-10 -5 -10 -20 -2 -16 9 -22 8 -26 -5 -9 -23 -23 -18 -30 10 -3 14 -14 30 -23
35 -15 9 -14 9 2 10 19 0 20 2 11 24 -3 9 -10 13 -15 10 -5 -3 -9 -3 -9 1 0 3
10 10 23 15 l22 9 -22 0 -23 1 20 20 20 20 -20 20 c-11 11 -20 26 -20 34 0 17
40 26 57 13 7 -5 22 -8 35 -7z m403 1 c-3 -11 -1 -23 6 -26 8 -6 7 -10 -2 -16
-11 -6 -11 -11 -1 -21 6 -6 12 -19 12 -27 -1 -24 -29 30 -30 56 0 23 9 53 17
53 2 0 2 -9 -2 -19z m-984 -11 c10 0 19 5 21 10 2 6 11 4 23 -5 11 -9 14 -13
6 -9 -10 5 -11 1 -6 -17 7 -21 6 -22 -9 -10 -11 10 -16 10 -16 2 0 -17 22 -38
44 -42 16 -4 15 -6 -5 -28 l-23 -24 27 5 c18 4 27 1 27 -8 0 -7 3 -19 6 -27
14 -37 -69 -65 -96 -32 -11 13 -14 13 -27 -2 -14 -17 -14 -17 -9 0 3 9 1 17
-4 17 -6 0 -10 4 -10 9 0 8 21 17 44 19 9 0 26 22 26 33 0 3 -20 27 -45 53
-46 49 -57 70 -30 60 9 -4 15 -1 15 7 0 10 3 10 12 1 7 -7 20 -12 29 -12z
m1481 -2 c-7 -7 -12 -8 -12 -2 0 14 12 26 19 19 2 -3 -1 -11 -7 -17z m-5594
-85 l3 -73 -76 0 -75 0 0 74 c0 41 4 76 10 78 5 2 38 1 72 -2 l63 -5 3 -72z
m8732 72 c0 -2 -7 -8 -15 -15 -12 -10 -15 -10 -15 2 0 8 7 15 15 15 8 0 15 -1
15 -2z m214 -4 c4 -5 -3 -7 -14 -4 -22 6 -26 -7 -8 -25 9 -9 9 -12 0 -12 -14
0 -34 35 -25 44 9 9 41 7 47 -3z m-3339 -40 c5 -30 4 -33 -10 -21 -15 13 -20
42 -8 53 9 10 11 6 18 -32z m3201 9 c10 0 31 7 46 14 19 10 30 11 34 4 9 -14
-15 -28 -34 -20 -13 5 -13 2 1 -18 23 -33 21 -42 -5 -38 -13 2 -22 9 -20 17 2
11 -4 10 -24 -4 -22 -14 -28 -15 -35 -4 -6 10 -9 11 -9 2 0 -7 -4 -13 -9 -13
-4 0 -6 11 -3 25 2 14 8 22 13 19 5 -3 6 2 3 10 -3 9 -10 16 -16 16 -5 0 -6 5
-3 11 5 7 13 5 24 -5 10 -9 26 -16 37 -16z m-4536 -15 c0 -18 -5 -25 -20 -25
-15 0 -20 7 -20 25 0 18 5 25 20 25 15 0 20 -7 20 -25z m3410 -9 c-14 -14 -24
0 -16 21 6 15 8 15 16 3 6 -9 5 -19 0 -24z m1040 14 c0 -5 -7 -7 -15 -4 -8 4
-15 8 -15 10 0 2 7 4 15 4 8 0 15 -4 15 -10z m-8052 -50 c0 -44 -2 -50 -21
-50 -15 0 -18 3 -9 8 7 5 14 26 17 48 5 47 4 44 9 44 3 0 5 -22 4 -50z m5937
41 c17 -7 15 -10 -20 -27 -22 -10 -44 -19 -49 -19 -5 0 -11 -7 -13 -15 -4 -13
-3 -13 6 0 6 8 11 10 11 4 0 -5 -7 -19 -15 -30 -16 -22 -20 -38 -5 -29 5 3 5
-7 -1 -25 -6 -16 -18 -30 -26 -30 -8 0 -11 -5 -7 -12 6 -10 4 -10 -7 0 -7 6
-22 12 -34 12 -41 0 -62 50 -28 68 16 9 16 11 0 36 -9 14 -17 32 -17 41 0 8
-7 15 -15 15 -8 0 -15 -4 -15 -10 0 -15 -17 -12 -23 3 -4 11 18 14 106 16 62
1 114 4 116 7 6 5 11 4 36 -5z m2310 -1 c3 -6 18 -7 33 -4 27 7 27 7 8 -15
-29 -32 -86 -22 -73 13 7 18 23 21 32 6z m-6188 -14 c0 -8 -6 -12 -15 -9 -11
5 -11 7 0 14 7 5 13 9 14 9 0 0 1 -6 1 -14z m-70 -28 c-3 -7 -5 -2 -5 12 0 14
2 19 5 13 2 -7 2 -19 0 -25z m6060 10 c-3 -8 -6 -5 -6 6 -1 11 2 17 5 13 3 -3
4 -12 1 -19z m-6748 -2 c7 -8 11 -30 9 -48 -3 -30 -6 -33 -38 -33 -33 0 -35 2
-38 39 -3 40 8 56 39 56 9 0 22 -6 28 -14z m1889 -11 c-3 -3 -9 2 -12 12 -6
14 -5 15 5 6 7 -7 10 -15 7 -18z m1232 5 c0 -5 -13 -24 -28 -42 -16 -18 -31
-41 -35 -50 -4 -10 -13 -18 -22 -18 -21 0 -19 6 17 40 36 35 33 50 -5 20 -14
-11 -30 -20 -37 -20 -6 0 -9 -4 -6 -8 2 -4 0 -14 -5 -22 -8 -11 -9 -4 -5 24 6
46 6 46 50 56 24 5 36 4 39 -4 2 -6 9 -1 16 12 12 23 21 28 21 12z m-1000 -14
c0 -3 -4 -8 -10 -11 -5 -3 -10 -1 -10 4 0 6 5 11 10 11 6 0 10 -2 10 -4z
m1717 -11 c20 -6 22 -9 11 -28 -7 -12 -11 -26 -10 -30 1 -5 -6 -6 -17 -2 -13
4 -23 0 -30 -12 -9 -16 -10 -15 -11 9 0 22 4 25 23 22 17 -3 16 -1 -5 8 -27
11 -41 35 -15 25 43 -16 59 -18 53 -8 -4 6 -16 11 -26 11 -10 0 -22 5 -26 11
-4 7 0 9 12 6 11 -3 29 -8 41 -12z m80 -17 c-3 -7 -5 -2 -5 12 0 14 2 19 5 13
2 -7 2 -19 0 -25z m-944 2 c3 -11 1 -20 -4 -20 -5 0 -9 6 -9 14 0 8 -6 17 -12
19 -8 4 -7 6 3 6 9 1 19 -8 22 -19z m-1103 -11 c0 -7 -7 -17 -16 -24 -16 -11
-16 -12 0 -18 9 -4 16 -2 16 3 0 6 5 10 10 10 13 0 13 -105 0 -150 -7 -25 -7
-36 3 -42 8 -5 6 -8 -8 -9 -17 -1 -17 -2 -3 -6 16 -4 16 -6 3 -19 -11 -11 -42
-15 -125 -16 -60 -1 -113 2 -117 5 -10 10 18 145 39 186 10 19 18 41 18 48 0
17 17 25 40 18 11 -4 17 -12 13 -21 -3 -7 0 -14 6 -14 6 0 11 5 11 10 0 6 10
10 23 10 12 0 33 9 47 20 29 22 40 25 40 9z m1638 -61 l3 -68 -82 0 -82 0 7
38 c3 20 6 52 6 70 l0 33 73 -3 72 -3 3 -67z m3446 57 c3 -8 1 -15 -4 -15 -6
0 -10 7 -10 15 0 8 2 15 4 15 2 0 6 -7 10 -15z m-3189 -5 c3 -5 1 -10 -4 -10
-6 0 -11 5 -11 10 0 6 2 10 4 10 3 0 8 -4 11 -10z m3061 -27 c-3 -8 -1 -11 4
-8 6 3 10 0 10 -7 0 -17 -58 -40 -66 -27 -11 19 -22 8 -20 -23 1 -31 -1 -33
-34 -36 -33 -2 -34 -1 -16 13 12 9 20 29 22 52 4 72 3 70 13 54 5 -8 19 -16
32 -18 17 -3 19 -1 10 10 -16 20 -3 27 25 15 15 -7 23 -17 20 -25z m-8142 8
l29 -6 -26 -12 c-15 -7 -27 -19 -27 -28 0 -22 21 -18 27 5 7 28 23 25 23 -5 0
-24 -3 -25 -57 -24 -32 0 -52 3 -45 6 17 7 15 30 -3 36 -17 7 -29 -8 -21 -28
3 -8 1 -15 -4 -15 -6 0 -10 12 -10 26 0 14 -4 23 -10 19 -5 -3 -10 0 -10 8 0
17 66 38 90 30 8 -3 28 -8 44 -12z m1136 -97 l0 -105 -122 3 c-119 3 -123 4
-120 24 2 15 -4 23 -18 27 -18 5 -20 13 -20 75 0 47 4 72 13 75 6 3 69 6 140
6 l127 1 0 -106z m3150 82 c0 -8 -7 -19 -15 -26 -12 -10 -15 -10 -15 3 0 9 5
19 10 22 6 4 7 11 4 17 -4 7 -2 8 4 4 7 -4 12 -13 12 -20z m3408 -26 c-3 -45
-6 -52 -28 -57 -20 -5 -21 -7 -7 -12 15 -6 15 -7 -3 -19 -18 -11 -20 -10 -20
18 0 26 -5 31 -30 37 -21 4 -30 11 -30 25 0 19 1 19 30 -2 25 -18 30 -19 30
-6 0 9 4 16 9 16 5 0 12 11 15 25 4 14 13 25 22 25 12 0 14 -11 12 -50z m242
30 c0 -13 -7 -20 -20 -20 -22 0 -23 1 -14 24 9 23 34 20 34 -4z m60 -10 c0 -5
-5 -10 -11 -10 -5 0 -7 5 -4 10 3 6 8 10 11 10 2 0 4 -4 4 -10z m30 -5 c0 -8
-4 -15 -10 -15 -5 0 -10 7 -10 15 0 8 5 15 10 15 6 0 10 -7 10 -15z m-8150
-41 c0 -2 -7 -4 -15 -4 -8 0 -15 4 -15 10 0 5 7 7 15 4 8 -4 15 -8 15 -10z
m3765 6 c3 -5 0 -10 -7 -11 -7 -1 -29 -3 -48 -5 -102 -10 -143 -9 -165 2 -13
7 -26 10 -29 6 -3 -3 -6 0 -6 6 0 15 246 17 255 2z m4285 0 c0 -5 -2 -10 -4
-10 -3 0 -8 5 -11 10 -3 6 -1 10 4 10 6 0 11 -4 11 -10z m301 -45 c-3 -5 -6
-13 -7 -17 -1 -5 -2 -9 -3 -10 -2 -2 -5 -14 -7 -27 -8 -44 -15 -37 -12 12 2
34 7 47 18 47 12 1 11 4 -4 15 -10 7 -15 19 -11 25 9 14 35 -30 26 -45z m-230
22 c-10 -9 -11 -8 -5 6 3 10 9 15 12 12 3 -3 0 -11 -7 -18z m-8686 -10 c30 -4
30 -4 33 -75 l3 -72 -76 0 -75 0 0 74 c0 80 4 86 55 80 17 -3 44 -6 60 -7z
m4919 4 c3 -5 -2 -15 -12 -22 -15 -12 -16 -12 -5 2 7 9 10 19 6 22 -3 4 -4 7
0 7 3 0 8 -4 11 -9z m3386 -34 c0 -3 -9 -7 -20 -10 -21 -5 -24 1 -14 27 5 13
8 13 20 1 8 -7 14 -16 14 -18z m-6120 -5 c40 -7 45 -10 42 -32 -1 -13 -4 -25
-5 -26 -1 -2 -80 -6 -174 -9 -163 -6 -171 -6 -169 12 2 12 -5 20 -23 24 -16 4
0 7 42 8 37 0 67 5 67 10 0 5 8 12 18 14 27 7 152 6 202 -1z m2980 -21 c-6
-12 -16 -19 -21 -15 -6 4 -4 13 7 25 21 24 29 18 14 -10z m3478 22 c-10 -2
-26 -2 -35 0 -10 3 -2 5 17 5 19 0 27 -2 18 -5z m65 0 c-7 -2 -21 -2 -30 0
-10 3 -4 5 12 5 17 0 24 -2 18 -5z m41 -43 c-1 -28 -4 -53 -8 -57 -3 -3 -6 1
-6 9 0 18 -40 31 -64 22 -9 -3 -16 -1 -16 5 0 11 6 13 50 15 20 1 25 6 25 29
-1 15 4 27 10 27 6 0 10 -21 9 -50z m-3914 -70 c0 -40 -14 -61 -24 -35 -3 8
-12 12 -21 9 -12 -5 -15 1 -15 28 0 32 3 35 30 36 28 1 30 -2 30 -38z m3860
30 c0 -5 -19 -9 -42 -9 l-43 2 35 7 c19 4 38 8 43 9 4 0 7 -3 7 -9z m-3012
-57 c-3 -35 -6 -38 -33 -39 -36 -1 -43 7 -37 46 4 27 8 30 39 30 33 0 34 -1
31 -37z m929 -38 c-1 -25 -6 -46 -12 -48 -10 -2 -18 68 -10 91 10 28 24 -1 22
-43z m51 -3 c3 -37 1 -42 -17 -42 -18 0 -21 6 -21 38 0 68 33 71 38 4z m-2260
-33 c-2 -6 -8 -10 -13 -10 -5 0 -11 4 -13 10 -2 6 4 11 13 11 9 0 15 -5 13
-11z m149 -21 c-3 -7 -5 -2 -5 12 0 14 2 19 5 13 2 -7 2 -19 0 -25z m620 -325
c-1 -65 -3 -12 -3 117 0 129 2 182 3 118 2 -65 2 -171 0 -235z m43 117 c0
-147 -4 -230 -10 -230 -6 0 -10 83 -10 230 0 147 4 230 10 230 6 0 10 -83 10
-230z m31 218 c9 -30 -2 -458 -11 -453 -13 8 -13 465 -1 465 5 0 10 -6 12 -12z
m26 -340 c-1 -68 -3 -15 -3 117 0 132 2 187 3 123 2 -64 2 -172 0 -240z m30
-5 c-1 -65 -3 -12 -3 117 0 129 2 182 3 118 2 -65 2 -171 0 -235z m-3629 142
c8 -148 5 -202 -12 -184 -2 2 -7 87 -11 189 -9 238 9 234 23 -5z m-1005 168
c-18 -2 -48 -2 -65 0 -18 2 -4 4 32 4 36 0 50 -2 33 -4z m1060 -100 c10 -154
9 -253 -3 -253 -5 0 -10 24 -10 53 0 28 -3 109 -7 180 -4 82 -3 127 4 127 6 0
13 -46 16 -107z m4324 -270 c-1 -71 -3 -13 -3 127 0 140 2 198 3 128 2 -71 2
-185 0 -255z m40 -5 c-1 -73 -3 -16 -3 127 0 143 2 203 3 133 2 -70 2 -187 0
-260z m51 124 c2 -220 0 -252 -13 -252 -13 0 -15 34 -15 256 0 200 3 255 13
252 9 -4 13 -66 15 -256z m32 -2 c0 -160 -4 -250 -10 -250 -6 0 -10 90 -10
250 0 160 4 250 10 250 6 0 10 -90 10 -250z m27 -127 c-1 -71 -3 -13 -3 127 0
140 2 198 3 128 2 -71 2 -185 0 -255z m2583 373 c0 -2 -6 -9 -14 -15 -11 -9
-16 -9 -22 0 -4 7 -3 9 4 5 6 -3 13 -2 17 4 6 10 15 14 15 6z m-6980 -186 c0
-100 -4 -160 -10 -160 -6 0 -10 60 -10 160 0 100 4 160 10 160 6 0 10 -60 10
-160z m5337 -257 c-1 -76 -3 -14 -3 137 0 151 2 213 3 138 2 -76 2 -200 0
-275z m61 140 l-2 -268 -6 250 c-5 233 -4 285 6 285 2 0 3 -120 2 -267z
m-5312 210 c-3 -21 -6 -86 -6 -145 0 -65 -4 -108 -10 -108 -11 0 -13 134 -4
229 4 33 11 61 17 61 6 0 7 -15 3 -37z m73 -85 c0 -51 -4 -111 -8 -133 -7 -30
-9 -5 -10 93 -1 82 3 132 9 132 6 0 10 -37 9 -92z m2588 50 c-3 -8 -6 -5 -6 6
-1 11 2 17 5 13 3 -3 4 -12 1 -19z m-2521 -19 c-3 -17 -6 -67 -6 -110 0 -46
-4 -79 -10 -79 -11 0 -13 123 -4 183 4 20 11 37 17 37 5 0 7 -13 3 -31z m50
-51 c-3 -29 -5 -73 -5 -97 -1 -25 -4 -41 -9 -35 -11 13 -2 184 9 184 6 0 8
-22 5 -52z m2471 -20 c-2 -13 -4 -3 -4 22 0 25 2 35 4 23 2 -13 2 -33 0 -45z
m-2437 -28 c0 -53 -4 -80 -11 -80 -8 0 -10 20 -5 68 3 37 6 73 6 80 0 6 2 12
5 12 3 0 5 -36 5 -80z m3491 46 c14 8 10 -6 -6 -22 -13 -14 -15 -12 -14 13 0
15 3 22 6 15 2 -6 9 -10 14 -6z m-3460 -53 c-2 -54 -21 -86 -21 -36 0 40 11
95 18 88 3 -3 4 -26 3 -52z m3529 37 c0 -11 -4 -20 -9 -20 -5 0 -7 9 -4 20 3
11 7 20 9 20 2 0 4 -9 4 -20z m35 -10 c3 -5 1 -10 -4 -10 -6 0 -11 5 -11 10 0
6 2 10 4 10 3 0 8 -4 11 -10z m910 -88 c-3 -3 -11 0 -18 7 -9 10 -8 11 6 5 10
-3 15 -9 12 -12z m602 -214 c-2 -18 -4 -4 -4 32 0 36 2 50 4 33 2 -18 2 -48 0
-65z m-7195 -195 c13 -7 -29 -40 -60 -46 -64 -13 -117 35 -54 49 15 3 32 7 37
9 11 4 65 -4 77 -12z m-12 -63 c0 -5 -10 -10 -22 -10 -13 0 -34 -3 -48 -6
l-25 -6 25 15 c29 17 70 21 70 7z"/>
<path d="M5326 7171 c-5 -8 1 -2371 5 -2375 3 -2 509 40 517 43 1 1 2 498 2
1105 l0 1104 -77 17 c-43 9 -121 28 -173 42 -224 60 -270 71 -274 64z m215
-116 c100 -25 192 -45 205 -45 57 0 54 63 54 -1085 0 -580 -4 -1056 -8 -1059
-7 -4 -100 -13 -369 -33 l-83 -6 0 1137 c0 711 4 1136 10 1136 5 0 91 -20 191
-45z"/>
<path d="M5401 6987 c-16 -16 -15 -348 2 -370 8 -10 57 -24 147 -41 158 -30
164 -31 184 -10 13 13 16 44 16 184 l0 168 -117 27 c-65 15 -141 33 -170 40
-37 9 -54 10 -62 2z m236 -107 c-3 -39 -17 -39 -17 0 0 17 4 30 10 30 5 0 8
-13 7 -30z m63 -71 c0 -4 -13 -4 -29 1 -35 10 -40 2 -35 -58 4 -43 0 -48 -25
-33 -9 6 -10 11 -2 15 6 4 11 29 11 55 l0 48 40 -10 c22 -6 40 -14 40 -18z
m-170 -59 c0 -5 -5 -10 -11 -10 -5 0 -7 5 -4 10 3 6 8 10 11 10 2 0 4 -4 4
-10z m53 -17 c-7 -2 -19 -2 -25 0 -7 3 -2 5 12 5 14 0 19 -2 13 -5z"/>
<path d="M5396 6414 c-3 -9 -6 -91 -6 -184 0 -188 0 -188 72 -195 24 -3 87
-10 141 -16 85 -10 100 -9 122 5 l25 16 0 170 c0 168 0 170 -22 174 -35 8
-295 46 -312 46 -7 0 -17 -7 -20 -16z m243 -66 c0 -7 -4 -22 -9 -33 -6 -16 -8
-14 -7 13 0 17 4 32 9 32 4 0 8 -6 7 -12z m43 -77 c5 -4 -8 -5 -27 -3 -19 2
-35 8 -35 13 0 10 49 1 62 -10z m-42 -96 c0 -8 -7 -11 -19 -8 -16 4 -17 8 -8
18 14 15 27 10 27 -10z"/>
<path d="M5397 5854 c-11 -37 -19 -252 -12 -308 7 -50 11 -59 34 -68 39 -15
302 -11 318 5 12 12 16 86 14 293 l-1 71 -122 7 c-68 4 -146 9 -174 13 -45 5
-53 3 -57 -13z m243 -54 c0 -5 -4 -10 -10 -10 -5 0 -10 5 -10 10 0 6 5 10 10
10 6 0 10 -4 10 -10z m36 -60 c14 0 23 -4 20 -9 -3 -5 -15 -7 -26 -4 -11 3
-27 0 -35 -7 -13 -10 -15 -9 -15 10 0 16 4 20 16 16 9 -3 27 -6 40 -6z m-36
-50 c0 -5 -4 -10 -10 -10 -5 0 -10 5 -10 10 0 6 5 10 10 10 6 0 10 -4 10 -10z
m0 -51 c0 -21 -8 -23 -30 -9 -10 6 -11 10 -2 10 6 0 12 7 12 16 0 8 5 12 10 9
6 -3 10 -15 10 -26z m-100 1 c0 -5 -7 -10 -16 -10 -8 0 -12 5 -9 10 3 6 10 10
16 10 5 0 9 -4 9 -10z"/>
<path d="M5396 5288 c-11 -43 -7 -356 5 -364 16 -9 218 -6 276 5 29 6 53 17
61 29 12 18 15 98 13 300 l-1 52 -174 0 c-172 0 -174 0 -180 -22z m244 -41
c-4 -5 -5 -17 -3 -28 5 -17 17 -23 51 -22 6 1 12 -3 12 -8 0 -5 -13 -9 -29 -9
-25 0 -29 -4 -34 -32 -2 -18 -1 -41 4 -50 12 -23 2 -27 -75 -29 -75 -2 -86 3
-61 27 15 16 18 16 26 2 6 -11 18 -13 46 -9 37 6 38 8 40 49 l3 43 -60 -2
c-33 -1 -63 1 -67 4 -7 8 12 9 80 7 l47 -1 0 46 c0 39 2 44 14 33 8 -7 11 -17
6 -21z m0 -242 c0 -8 -4 -15 -10 -15 -5 0 -10 7 -10 15 0 8 5 15 10 15 6 0 10
-7 10 -15z m-100 -15 c0 -5 -7 -10 -16 -10 -8 0 -12 5 -9 10 3 6 10 10 16 10
5 0 9 -4 9 -10z"/>
<path d="M2441 6225 c-20 -110 -28 -635 -10 -683 18 -48 62 -57 97 -19 22 23
22 28 22 343 0 299 -2 321 -20 344 -13 18 -28 25 -53 25 -18 0 -34 -4 -36 -10z"/>
<path d="M2938 6047 c-3 -67 -3 -128 -1 -134 3 -8 25 -13 59 -13 68 0 72 8 66
132 -5 110 -12 122 -78 132 l-41 6 -5 -123z"/>
<path d="M3411 6077 c-5 -17 -11 -72 -13 -122 l-3 -90 56 -3 56 -3 -4 83 c-5
98 -11 146 -21 151 -4 2 -19 7 -34 11 -23 5 -28 2 -37 -27z"/>
<path d="M3850 5940 l0 -110 33 -2 c50 -2 71 1 78 14 9 13 10 118 3 171 l-6
37 -54 0 -54 0 0 -110z"/>
<path d="M13946 6495 c-3 -8 -1 -15 4 -15 6 0 10 7 10 15 0 8 -2 15 -4 15 -2
0 -6 -7 -10 -15z"/>
<path d="M4283 5753 c4 -142 7 -264 7 -270 0 -9 16 -13 45 -13 40 0 47 4 65
33 18 29 20 50 20 234 0 124 -4 204 -10 208 -5 3 -10 17 -10 29 0 20 -6 24
-46 30 -26 3 -54 6 -62 6 -13 0 -14 -32 -9 -257z"/>
<path d="M8885 6050 c3 -5 8 -10 11 -10 2 0 4 5 4 10 0 6 -5 10 -11 10 -5 0
-7 -4 -4 -10z"/>
<path d="M10830 5500 c0 -5 7 -10 15 -10 8 0 15 5 15 10 0 6 -7 10 -15 10 -8
0 -15 -4 -15 -10z"/>
<path d="M11485 5370 c3 -5 8 -10 11 -10 2 0 4 5 4 10 0 6 -5 10 -11 10 -5 0
-7 -4 -4 -10z"/>
<path d="M11831 5434 c0 -11 3 -14 6 -6 3 7 2 16 -1 19 -3 4 -6 -2 -5 -13z"/>
<path d="M11777 5373 c-4 -3 -7 -13 -7 -22 0 -11 3 -10 15 5 9 12 14 14 15 6
0 -7 5 -10 10 -7 6 4 8 11 5 16 -7 11 -29 12 -38 2z"/>
<path d="M11210 5440 c0 -5 5 -10 11 -10 5 0 7 5 4 10 -3 6 -8 10 -11 10 -2 0
-4 -4 -4 -10z"/>
<path d="M11230 5307 c0 -8 7 -17 15 -21 8 -3 15 -3 15 0 0 3 -7 12 -15 20
-13 13 -15 13 -15 1z"/>
<path d="M13616 5353 c-4 -5 -18 -8 -29 -8 -15 0 -23 -7 -25 -22 -6 -38 35
-28 57 15 12 22 11 28 -3 15z"/>
<path d="M13612 5305 c-7 -15 -8 -25 -2 -25 6 0 10 7 10 15 0 8 5 15 10 15 6
0 10 5 10 10 0 19 -17 10 -28 -15z"/>
<path d="M10962 5195 c0 -16 2 -22 5 -12 2 9 2 23 0 30 -3 6 -5 -1 -5 -18z"/>
<path d="M7720 5240 c0 -11 4 -20 8 -20 4 0 8 9 8 20 0 11 -4 20 -8 20 -4 0
-8 -9 -8 -20z"/>
<path d="M11902 5040 c0 -19 2 -27 5 -17 2 9 2 25 0 35 -3 9 -5 1 -5 -18z"/>
<path d="M210 9111 c0 -6 5 -13 10 -16 6 -3 10 1 10 9 0 9 -4 16 -10 16 -5 0
-10 -4 -10 -9z"/>
</g>
</svg>
