<?xml version="1.0" encoding="UTF-8" standalone="no"?>
<!-- Generator: Adobe Illustrator 19.0.0, SVG Export Plug-In . SVG Version: 6.00 Build 0)  -->

<svg
   version="1.1"
   id="Capa_1"
   x="0px"
   y="0px"
   viewBox="0 0 455.431 455.431"
   style="enable-background:new 0 0 455.431 455.431;"
   xml:space="preserve"
   sodipodi:docname="favicon.svg"
   inkscape:version="1.1.1 (c3084ef, 2021-09-22)"
   xmlns:inkscape="http://www.inkscape.org/namespaces/inkscape"
   xmlns:sodipodi="http://sodipodi.sourceforge.net/DTD/sodipodi-0.dtd"
   xmlns="http://www.w3.org/2000/svg"
   xmlns:svg="http://www.w3.org/2000/svg"><defs
   id="defs41" /><sodipodi:namedview
   id="namedview39"
   pagecolor="#ffffff"
   bordercolor="#666666"
   borderopacity="1.0"
   inkscape:pageshadow="2"
   inkscape:pageopacity="0.0"
   inkscape:pagecheckerboard="0"
   showgrid="false"
   inkscape:zoom="1.1351989"
   inkscape:cx="239.16513"
   inkscape:cy="234.76062"
   inkscape:window-width="1296"
   inkscape:window-height="847"
   inkscape:window-x="0"
   inkscape:window-y="25"
   inkscape:window-maximized="0"
   inkscape:current-layer="Capa_1" />
<path
   style="fill:#5CA4DA;"
   d="M405.493,412.764c-69.689,56.889-287.289,56.889-355.556,0c-69.689-56.889-62.578-300.089,0-364.089  s292.978-64,355.556,0S475.182,355.876,405.493,412.764z"
   id="path2" />
<path
   style="fill:#6DAFE0;"
   d="M229.138,313.209c-62.578,49.778-132.267,75.378-197.689,76.8  c-48.356-82.489-38.4-283.022,18.489-341.333c51.2-52.622,211.911-62.578,304.356-29.867  C377.049,112.676,330.116,232.142,229.138,313.209z"
   id="path4" />
<path
   style="fill:#FFFFFF;"
   d="M259.004,286.187h-61.156V256.32c0-11.378,1.422-19.911,4.267-24.178  c2.844-5.689,8.533-12.8,18.489-22.756l27.022-28.444c4.267-4.267,5.689-11.378,5.689-18.489c0-7.111-1.422-14.222-7.111-18.489  c-4.267-5.689-9.956-7.111-17.067-7.111c-7.111,0-12.8,2.844-17.067,8.533c-4.267,5.689-7.111,14.222-8.533,24.178h-64  c2.844-27.022,12.8-48.356,29.867-62.578s36.978-22.756,62.578-22.756s45.511,7.111,61.156,19.911  c15.644,14.222,24.178,32.711,24.178,56.889c0,11.378-1.422,18.489-4.267,24.178c-2.844,5.689-4.267,8.533-5.689,11.378  c-1.422,2.844-4.267,5.689-7.111,9.956c-4.267,4.267-7.111,7.111-8.533,8.533c-7.111,7.111-12.8,12.8-18.489,18.489  c-5.689,5.689-9.956,9.956-11.378,14.222c-1.422,4.267-2.844,8.533-2.844,15.644V286.187z M193.582,337.387  c0-19.911,15.644-35.556,35.556-35.556s35.556,15.644,35.556,35.556s-15.644,35.556-35.556,35.556S193.582,357.298,193.582,337.387z  "
   id="path6" />
<g
   id="g8">
</g>
<g
   id="g10">
</g>
<g
   id="g12">
</g>
<g
   id="g14">
</g>
<g
   id="g16">
</g>
<g
   id="g18">
</g>
<g
   id="g20">
</g>
<g
   id="g22">
</g>
<g
   id="g24">
</g>
<g
   id="g26">
</g>
<g
   id="g28">
</g>
<g
   id="g30">
</g>
<g
   id="g32">
</g>
<g
   id="g34">
</g>
<g
   id="g36">
</g>
<path
   style="fill:#0000ff;stroke-width:0.72869"
   d="m 30.240618,387.29852 c -0.498024,-1.20234 -1.193627,-2.18607 -1.545783,-2.18607 -0.352157,0 -0.581205,-0.24593 -0.508995,-0.54651 0.170446,-0.70951 -2.497783,-6.24135 -3.290459,-6.82185 -0.334815,-0.2452 -0.548049,-0.66836 -0.473854,-0.94036 0.208898,-0.76581 -3.116702,-8.75939 -3.853011,-9.26129 -0.359715,-0.24521 -0.606357,-0.73707 -0.548094,-1.09304 0.202473,-1.23704 -1.631953,-6.84108 -2.239358,-6.84108 -0.336115,0 -0.422373,-0.49187 -0.191682,-1.09304 0.23069,-0.60117 0.06673,-1.09303 -0.364345,-1.09303 -0.43108,0 -0.595035,-0.49187 -0.364345,-1.09304 0.23069,-0.60116 0.138422,-1.09326 -0.205042,-1.09355 -0.343463,-2.7e-4 -0.674487,-0.73807 -0.735607,-1.63955 -0.06112,-0.90147 -0.515226,-2.62276 -1.009126,-3.8251 -0.4939,-1.20234 -0.988182,-2.84189 -1.098407,-3.64345 -0.268974,-1.95599 -3.186496,-13.56301 -3.754826,-14.93814 C 9.8092237,330.58825 9.6552319,329.85875 9.71548,329.5683 9.775728,329.27786 9.3226857,326.65458 8.7087195,323.73878 7.5037074,318.01606 4.8034186,302.32097 4.4116722,298.76274 4.2792999,297.5604 3.9548913,293.95338 3.6907642,290.74715 3.4266372,287.54092 3.069094,284.49939 2.8962238,283.98822 2.7233536,283.47704 2.4027969,279.54212 2.1838754,275.24394 1.9649541,270.94577 1.6001022,265.97037 1.3730935,264.18749 0.4887335,257.24193 1.0366673,213.31103 2.1869977,198.93226 7.8085612,128.66451 25.519727,73.648804 50.638044,48.430111 68.555056,30.441499 100.52507,16.554501 143.55185,8.0706104 207.28194,-4.4954968 288.59941,-1.3167261 344.25303,15.916195 l 9.78452,3.029735 0.93758,4.007792 c 3.05098,13.041884 4.14575,24.323229 4.20744,43.357032 0.0649,20.026241 -0.56343,27.666311 -3.68567,44.814406 -10.89243,59.8239 -42.49059,119.02029 -89.85062,168.3273 l -6.6492,6.92255 0.32562,-14.93813 c 0.32965,-15.12327 1.12307,-20.39421 3.89091,-25.84818 0.61583,-1.21351 9.37685,-10.56809 19.46891,-20.78796 10.09207,-10.21987 19.69663,-20.38509 21.34346,-22.58938 4.38169,-5.86487 10.83677,-19.52192 12.26818,-25.95583 1.72267,-7.74304 1.15592,-28.01786 -1.00939,-36.11062 -6.75506,-25.24666 -23.36105,-42.485106 -49.31307,-51.191191 -10.95407,-3.674745 -21.59881,-5.002396 -36.79882,-4.589688 -11.97085,0.325032 -14.447,0.616187 -22.10755,2.59952 -15.14191,3.920255 -31.16489,12.933308 -42.29108,23.789049 -8.56,8.35193 -15.90066,20.40289 -20.11105,33.01574 -2.39134,7.16364 -5.11914,19.82585 -5.11914,23.76256 v 2.61812 h 32.04846 32.04846 l 0.36558,-1.63955 c 0.20107,-0.90175 0.84866,-3.81085 1.43908,-6.46466 3.48985,-15.686 12.06558,-24.68682 23.52095,-24.68682 7.69214,0 10.74705,1.14283 15.87315,5.93804 5.1637,4.83038 7.23985,8.87537 7.98557,15.5583 0.61215,5.48601 -0.64368,13.54515 -2.73929,17.57906 -0.88157,1.69698 -10.12885,12.04494 -20.54949,22.99547 -20.33007,21.36386 -24.54565,26.3549 -27.94422,33.0847 -3.25752,6.45045 -3.75308,10.88494 -3.75308,33.58398 v 20.62583 l 30.3091,0.19017 30.3091,0.19016 -8.83388,8.06992 -8.83388,8.06992 -4.53318,-0.95001 c -5.82803,-1.22137 -8.4813,-1.19925 -14.72214,0.1227 -7.25672,1.53714 -12.46825,4.33213 -17.58924,9.43325 -6.4417,6.41671 -10.47802,15.29402 -10.47802,23.04489 v 3.44042 l -7.83341,4.69092 c -41.87821,25.07811 -87.388025,40.59729 -132.965132,45.3421 -5.900096,0.61423 -13.156319,1.11678 -16.124939,1.11678 -5.310198,0 -5.412136,-0.0354 -6.302991,-2.18607 z"
   id="path161" /><path
   style="fill:#ffccaa;stroke-width:0.72869"
   d="M 197.83923,454.263 C 145.56133,451.3469 97.999128,440.44338 68.870681,424.69727 54.496444,416.92691 43.284716,407.32546 35.410526,396.0428 l -3.814153,-5.46517 7.155536,-0.51872 c 22.4499,-1.62741 38.511779,-4.13634 57.435118,-8.97157 29.473043,-7.53086 61.230223,-20.78634 88.046853,-36.75085 4.74084,-2.82232 8.75774,-5.13148 8.92645,-5.13148 0.16872,0 0.30676,0.92421 0.30676,2.05381 0,2.81649 1.97344,9.22874 4.18326,13.59252 2.45345,4.84488 9.81396,12.05072 14.77538,14.46489 4.28399,2.08454 12.54111,4.11188 16.74715,4.11188 4.24559,0 12.02585,-1.93967 16.50561,-4.11496 5.12193,-2.48711 12.30235,-9.42668 14.99896,-14.49586 5.58094,-10.49125 5.58094,-24.37676 0,-34.86801 -2.71011,-5.09453 -9.87576,-12.00809 -15.05075,-14.52122 l -4.28092,-2.07895 6.84778,-6.24167 c 57.12102,-52.06492 96.55259,-120.47832 108.10011,-187.55263 2.86906,-16.665132 3.55373,-24.698795 3.56124,-41.786677 0.007,-16.639325 -0.69946,-24.890255 -3.3235,-38.798846 -0.85023,-4.506635 -1.37632,-8.363443 -1.16908,-8.570684 0.51736,-0.517354 11.81108,4.077421 20.65461,8.403182 22.35592,10.935281 36.59126,25.175779 48.05756,48.074968 30.98131,61.872387 39.93936,178.863877 19.97489,260.870877 -3.35469,13.77988 -8.94799,29.85496 -14.16947,40.72283 -11.72393,24.40194 -23.50227,36.21845 -48.04657,48.20221 -31.91102,15.58058 -74.10465,24.70453 -127.88502,27.65385 -15.2875,0.83838 -40.4512,0.80989 -56.1091,-0.0635 z"
   id="path311" /><path
   style="fill:#ffff00;stroke-width:0.72869"
   d="M 33.043067,388.91384 C 31.385013,388.70701 30.592749,387.61272 27.49096,381.24517 20.208928,366.29616 17.345369,358.18688 12.388384,338.47632 6.2476686,314.05887 2.6139923,286.3466 1.4004866,254.67702 0.83474287,239.91246 2.1191126,201.22384 3.6502261,186.90888 10.648424,121.48012 27.502679,72.390255 51.054662,48.838273 76.49344,23.399492 130.10957,6.1436579 197.3431,1.7567481 c 17.03386,-1.11143959 59.49457,-0.4869287 75.55116,1.1112042 24.92911,2.4812283 49.93941,7.1122453 69.29388,12.8307637 5.77369,1.70591 10.76154,3.332732 11.08409,3.61516 0.80291,0.703025 2.34864,7.583757 3.76423,16.756259 1.61775,10.482493 2.28822,39.909244 1.19082,52.264737 -5.14949,57.976808 -32.54481,120.141208 -75.54207,171.417068 -6.20337,7.39776 -22.98581,25.74518 -23.21883,25.38401 -0.0775,-0.12007 0.0977,-6.94048 0.38924,-15.15645 0.81302,-22.91078 -0.57184,-20.19982 22.67534,-44.38842 10.5306,-10.95704 20.42702,-21.60165 21.99205,-23.65469 3.50473,-4.59758 10.22573,-18.48499 11.71708,-24.21069 1.42292,-5.46292 1.46086,-26.09768 0.0622,-33.8095 -5.29691,-29.20529 -27.82889,-50.936544 -60.16786,-58.029667 -5.13879,-1.127122 -9.23494,-1.352601 -24.04675,-1.323694 -17.08634,0.03337 -18.15713,0.119083 -24.93842,1.996544 -25.95187,7.185011 -47.04467,23.733517 -58.05716,45.549137 -4.5725,9.05808 -9.548,26.97849 -9.548,34.38934 v 3.65116 l 32.24451,-0.003 32.24452,-0.003 1.65334,-7.10217 c 2.81591,-12.09609 8.04899,-20.10375 15.39442,-23.5565 4.56009,-2.1435 13.43276,-2.11795 17.91444,0.0516 3.73054,1.80592 9.03638,7.26378 11.41779,11.74492 1.45344,2.73495 1.70173,4.26025 1.70716,10.48733 0.004,4.08629 -0.43901,8.82041 -1.00764,10.7783 -1.17401,4.04236 -4.82789,8.4035 -25.29617,30.19265 -21.1835,22.55051 -25.48417,28.5169 -27.18419,37.71314 -0.65836,3.56144 -1.21762,46.03657 -0.61084,46.39326 0.10019,0.0589 13.43685,0.30483 29.63701,0.54652 l 29.45484,0.43943 -8.26403,7.52179 c -6.57119,5.98098 -8.57463,7.42764 -9.78023,7.06216 -0.8339,-0.25281 -4.30342,-0.64484 -7.71004,-0.8712 -11.2445,-0.74713 -19.39282,2.31214 -27.3931,10.28468 -6.63712,6.61412 -9.76798,12.84025 -10.41404,20.70976 l -0.44907,5.46989 -6.2121,3.76094 c -34.53428,20.90855 -73.46093,35.88796 -111.471266,42.89614 -14.529922,2.67897 -36.94319,4.92579 -42.376307,4.24802 z"
   id="path461" /><path
   style="fill:#ff00ff;stroke-width:0.72869"
   d="m 198.18385,284.49115 c -0.26526,-0.83575 -0.2577,-10.09921 0.0168,-20.58549 0.84057,-32.11287 0.0403,-30.54596 33.55478,-65.69616 11.64889,-12.21743 18.53196,-20.01001 19.39215,-21.95461 3.23786,-7.31971 3.18272,-20.06342 -0.1163,-26.87827 -2.33366,-4.82071 -8.70517,-10.29801 -13.65216,-11.73613 -5.45263,-1.58513 -14.00432,-1.10245 -18.13696,1.02369 -6.49204,3.34 -11.56855,11.38138 -14.27332,22.6095 -0.83799,3.47871 -1.62699,6.73482 -1.75333,7.23579 -0.17932,0.71108 -7.12943,0.91086 -31.68685,0.91086 h -31.45715 l 0.48056,-4.69049 c 1.23677,-12.0716 7.02481,-28.78348 13.73107,-39.6459 8.90074,-14.41691 26.71401,-28.369841 44.2848,-34.687774 10.92219,-3.927296 16.32266,-4.872262 30.24061,-5.291455 19.10659,-0.575469 32.0034,1.725792 46.18688,8.241424 11.46385,5.26628 22.66678,14.429955 29.13561,23.832075 3.85023,5.59611 8.03689,14.70584 10.01811,21.79835 2.53294,9.06763 3.30008,29.33078 1.41463,37.36632 -1.40481,5.98716 -7.24599,18.57738 -11.10323,23.93215 -1.48888,2.06694 -11.12466,12.29413 -21.41285,22.7271 -10.99494,11.14968 -19.34753,20.22697 -20.26259,22.02064 -3.07111,6.01985 -3.852,10.82194 -4.2657,26.23193 l -0.39615,14.75597 H 228.3947 c -29.49386,0 -29.73236,-0.012 -30.21083,-1.51952 z"
   id="path537" /><path
   style="fill:#ff00ff;stroke-width:0.72869"
   d="m 221.34869,371.62141 c -11.7817,-2.55967 -22.10483,-12.02312 -25.70756,-23.56671 -5.13389,-16.44958 2.55492,-34.5488 17.86492,-42.05347 23.54055,-11.53913 50.62663,5.25079 50.62663,31.38205 0,9.41498 -3.05129,17.08449 -9.56899,24.05194 -4.97608,5.31944 -10.99488,8.75409 -17.90731,10.21886 -5.98714,1.2687 -9.35076,1.26152 -15.30769,-0.0327 z"
   id="path613" /><path
   style="fill:#00ffff;stroke-width:0.72869"
   d="m 195.65316,453.83302 c -24.46439,-1.43668 -54.63033,-5.88925 -76.14807,-11.23964 -42.872184,-10.66019 -69.275902,-25.6746 -84.781015,-48.21051 l -2.29542,-3.33627 3.824637,-0.40218 c 2.10355,-0.22119 7.922189,-0.76352 12.930309,-1.20517 31.587361,-2.78559 60.542759,-10.1714 93.223139,-23.77892 12.94079,-5.38831 30.38367,-14.08757 41.92031,-20.90686 4.3913,-2.59569 8.24425,-4.5587 8.56211,-4.36225 0.31786,0.19645 0.57793,1.27022 0.57793,2.38617 0,2.26982 2.08713,8.74464 4.02969,12.50113 1.75119,3.38644 8.5776,10.41082 12.64716,13.01393 4.36647,2.79305 13.04223,5.16097 18.90911,5.16097 5.43471,0 12.09941,-1.58545 16.90818,-4.02223 4.32936,-2.19385 10.86423,-8.14461 13.78277,-12.55079 6.74037,-10.17611 6.97099,-27.29314 0.51613,-38.30754 -2.42975,-4.14604 -9.83103,-10.97344 -14.4127,-13.29514 l -3.60381,-1.8262 14.10609,-13.78109 c 20.63178,-20.15643 34.56682,-36.65145 49.26172,-58.31148 44.02726,-64.89542 62.46488,-136.33435 51.66152,-200.169186 -0.89515,-5.28927 -1.4415,-9.802893 -1.21412,-10.030273 0.52601,-0.526013 12.6724,4.517275 21.32371,8.853787 23.47533,11.767128 39.19991,29.38442 50.93436,57.065129 24.30584,57.335743 32.65685,151.043223 20.17127,226.343703 -6.8446,41.27969 -19.8362,73.8914 -36.55708,91.76608 -17.41697,18.61879 -54.65776,34.48498 -99.07733,42.21122 -29.07048,5.05645 -54.01275,6.98336 -88.05302,6.80252 -13.82688,-0.0735 -26.9433,-0.23947 -29.14758,-0.36891 z"
   id="path652" /></svg>
