<?xml version="1.0" standalone="no"?>
<!DOCTYPE svg PUBLIC "-//W3C//DTD SVG 20010904//EN"
 "http://www.w3.org/TR/2001/REC-SVG-20010904/DTD/svg10.dtd">
<svg version="1.0" xmlns="http://www.w3.org/2000/svg"
 width="400.000000pt" height="400.000000pt" viewBox="0 0 400.000000 400.000000"
 preserveAspectRatio="xMidYMid meet">

<g transform="translate(0.000000,400.000000) scale(0.100000,-0.100000)"
fill="#000000" stroke="none">
<path d="M0 2000 l0 -2000 801 0 802 0 38 35 c23 20 50 35 64 35 14 0 25 6 25
13 0 9 3 8 9 -2 6 -10 13 -11 29 -2 30 16 31 15 43 -34 l11 -45 59 0 c42 0 70
7 104 25 39 20 50 22 66 12 10 -6 19 -16 19 -20 0 -5 9 -5 20 -2 11 4 20 2 20
-4 0 -7 31 -11 83 -11 l83 0 46 44 46 44 -76 64 c-116 96 -145 116 -178 119
-44 5 -58 -8 -40 -35 18 -28 11 -106 -10 -106 -7 0 -23 -11 -36 -24 -25 -27
-55 -35 -76 -22 -8 5 -18 4 -25 -3 -15 -15 -24 -14 -30 3 -3 8 1 13 11 12 13
-1 16 6 15 26 -1 20 3 28 14 28 12 0 13 3 4 14 -13 16 2 32 19 21 14 -9 12 7
-5 28 -13 18 -14 18 -26 -1 -7 -12 -19 -17 -31 -14 -10 2 -18 -1 -18 -7 0 -6
-7 -11 -16 -11 -14 0 -14 3 -4 15 18 22 8 27 -26 15 l-29 -10 25 20 c14 11 30
20 35 20 6 0 17 5 25 10 13 9 13 11 0 20 -12 7 -8 12 18 23 23 10 29 16 21 24
-7 7 -16 8 -23 2 -6 -5 -33 -26 -61 -46 -27 -20 -94 -81 -148 -135 -54 -54
-101 -98 -106 -98 -4 0 -20 55 -35 123 -45 196 -82 333 -127 472 -37 114 -42
144 -47 246 -2 66 0 124 5 134 8 14 14 9 36 -33 52 -99 119 -192 164 -229 26
-21 79 -69 118 -107 85 -84 299 -244 334 -252 14 -3 35 -9 46 -14 20 -9 78
-14 123 -11 17 1 29 14 48 55 27 58 137 190 219 265 123 111 153 149 186 234
17 45 40 129 51 187 11 58 23 123 27 145 l8 40 16 -37 c61 -137 63 -529 2
-722 -8 -27 -12 -59 -9 -71 3 -12 -1 -83 -10 -156 -8 -74 -18 -173 -22 -222
l-7 -87 642 0 641 0 0 359 0 358 -38 7 c-22 3 -51 15 -66 27 -20 16 -30 19
-39 10 -14 -14 -30 -15 -22 -1 6 9 -14 14 -42 11 -7 -1 -13 3 -13 9 0 5 -5 10
-11 10 -6 0 -24 9 -40 21 -16 11 -41 22 -56 25 -31 5 -87 22 -118 35 -11 5
-42 13 -70 19 -27 6 -63 17 -80 25 -16 7 -47 17 -68 20 -60 12 -36 16 29 6 94
-15 337 -84 492 -139 l142 -51 0 1624 0 1625 -485 0 -485 0 0 -52 c0 -35 3
-48 9 -39 11 17 23 -68 24 -165 0 -35 5 -64 10 -64 5 0 4 -7 -3 -15 -10 -13
-10 -19 5 -35 10 -11 26 -22 36 -25 11 -4 19 -13 19 -21 0 -8 10 -14 24 -14
16 0 26 -7 29 -21 3 -12 10 -18 16 -15 6 4 26 0 45 -8 19 -8 37 -12 40 -8 3 3
6 -8 6 -25 0 -16 8 -38 18 -49 15 -15 17 -27 11 -64 -11 -67 -23 -89 -86 -157
-52 -56 -65 -64 -123 -79 -36 -9 -77 -17 -92 -18 -29 -1 -37 -11 -15 -19 7 -3
5 -6 -5 -6 -21 -1 -19 5 -22 -86 -2 -58 1 -76 20 -104 13 -19 20 -39 17 -45
-4 -6 -8 -62 -9 -126 -1 -86 3 -121 13 -139 9 -14 11 -26 6 -30 -6 -3 -13 -18
-17 -33 -3 -16 -11 -28 -16 -28 -20 0 -10 -28 13 -35 21 -8 21 -8 -5 -12 -27
-4 -38 -26 -19 -37 9 -6 5 -49 -9 -81 -21 -51 -40 -133 -34 -148 9 -25 -5 -41
-23 -25 -14 11 -15 5 -10 -57 3 -39 7 -87 10 -107 5 -36 -6 -52 -16 -25 -3 6
-4 -11 -1 -40 2 -34 -2 -64 -13 -90 -10 -21 -22 -58 -28 -83 -6 -25 -16 -44
-23 -43 -7 2 -12 -6 -12 -16 0 -26 -10 -51 -20 -51 -11 0 0 71 13 88 6 8 6 12
-2 12 -7 0 -9 6 -5 13 3 6 -8 -2 -25 -20 -17 -18 -31 -36 -31 -40 0 -5 -12
-10 -27 -11 -16 -1 -29 -7 -31 -12 -2 -6 -10 -10 -17 -10 -7 0 -15 -6 -18 -14
-3 -8 -19 -17 -36 -21 -25 -5 -32 -13 -37 -40 -3 -20 -13 -35 -24 -38 -14 -4
-17 -11 -13 -27 5 -20 3 -22 -19 -17 -21 6 -27 3 -31 -14 -3 -12 -10 -18 -16
-15 -5 4 -12 2 -16 -4 -8 -13 -45 -13 -45 0 0 6 -4 10 -10 10 -5 0 -10 -8 -10
-17 0 -11 -3 -14 -8 -7 -4 6 -15 13 -24 17 -10 3 -18 14 -18 24 0 15 -2 16
-10 3 -8 -13 -10 -12 -10 3 0 9 -4 17 -9 17 -5 0 -12 24 -15 54 -4 30 -14 60
-22 66 -7 7 -11 16 -9 21 3 4 -4 13 -15 19 -11 6 -20 17 -20 25 0 7 -4 15 -9
17 -4 2 -12 14 -16 27 -7 22 -5 23 19 17 24 -6 36 6 17 18 -11 7 -23 84 -15
97 4 6 14 2 26 -10 10 -12 16 -26 13 -31 -3 -6 1 -10 10 -10 8 0 20 -12 25
-26 6 -16 16 -24 24 -21 8 3 23 -1 34 -9 12 -8 42 -17 69 -19 26 -3 60 -8 75
-11 36 -8 81 3 72 18 -5 8 -2 9 10 5 9 -4 15 -3 12 2 -6 9 6 34 33 77 11 17
22 20 67 17 53 -3 85 13 45 24 -25 6 -27 19 -6 39 17 17 20 54 5 54 -5 0 -10
13 -10 29 0 15 -5 42 -11 60 -11 32 -9 31 -96 35 -10 1 -17 -5 -15 -11 3 -16
-54 -18 -63 -3 -10 16 -83 12 -92 -5 -6 -9 -32 -17 -71 -21 -56 -6 -62 -5 -62
12 0 14 -3 15 -12 6 -21 -21 -31 -13 -24 18 10 53 -18 48 -78 -11 -29 -30 -56
-61 -58 -69 -4 -10 -8 -4 -13 15 -4 17 -12 36 -18 42 -12 16 -30 6 -23 -12 3
-8 -2 -19 -10 -25 -17 -15 -18 -30 -1 -30 8 0 12 -17 13 -50 0 -28 -3 -50 -8
-50 -19 0 -6 -19 15 -22 15 -2 29 -18 46 -52 20 -41 24 -66 26 -150 1 -83 5
-108 23 -141 37 -67 23 -146 -22 -129 -10 4 -18 0 -23 -12 -12 -31 -40 -52
-82 -59 -34 -6 -41 -4 -41 10 0 10 -6 15 -17 13 -11 -2 -26 7 -37 22 -10 14
-16 17 -12 8 4 -14 0 -18 -24 -18 -16 0 -32 5 -35 10 -10 17 -25 11 -25 -9 0
-34 46 -78 95 -90 25 -6 45 -16 45 -21 0 -6 6 -10 13 -10 7 0 18 -9 25 -21 11
-18 9 -23 -19 -50 -17 -16 -27 -29 -23 -29 5 -1 -4 -7 -21 -15 l-30 -15 39 6
c27 4 42 1 48 -8 7 -10 11 -10 21 4 7 9 22 17 32 18 44 5 55 0 55 -24 0 -14
-7 -26 -17 -30 -10 -3 -24 -9 -32 -12 -9 -4 -11 -2 -6 5 5 9 -8 11 -54 7 -35
-3 -61 -2 -61 4 0 5 -7 7 -16 3 -9 -3 -19 -2 -23 3 -23 32 -162 67 -176 44 -3
-5 -14 -10 -25 -10 -10 0 -20 -7 -24 -15 -3 -8 -12 -15 -20 -15 -8 0 -16 -6
-19 -12 -2 -7 -8 -9 -13 -5 -5 4 -2 12 5 16 8 5 11 17 7 28 -4 12 1 28 14 42
10 13 25 36 32 52 7 16 16 29 20 29 5 0 8 8 8 19 0 10 7 24 15 31 8 7 15 17
15 21 0 5 15 26 33 45 17 20 34 45 37 56 8 32 53 62 80 53 16 -5 19 -10 11
-18 -14 -14 -14 -27 -1 -27 5 0 17 17 26 38 10 20 26 44 37 53 12 10 17 21 12
29 -6 9 -9 10 -15 0 -6 -9 -12 -10 -26 -1 -11 6 -13 11 -6 11 6 0 12 7 12 15
0 8 7 15 15 15 10 0 15 10 15 30 0 17 -5 30 -11 30 -18 0 -39 -28 -33 -44 3
-8 2 -21 -2 -27 -5 -9 -10 -6 -15 9 -10 28 -29 29 -29 2 0 -11 5 -20 11 -20 5
0 7 -5 4 -11 -5 -6 -12 -4 -20 7 -12 17 -14 17 -41 -1 -36 -23 -53 -45 -54
-68 0 -10 -16 -34 -35 -54 -19 -20 -32 -40 -29 -44 3 -5 -1 -9 -9 -9 -19 0
-50 -48 -43 -66 3 -7 0 -13 -7 -11 -6 1 -13 -8 -15 -20 -2 -13 -8 -23 -13 -23
-5 0 -9 -7 -9 -15 0 -20 -27 -8 -33 14 -2 10 -19 21 -38 26 -24 5 -29 9 -16
12 14 4 17 11 12 34 -5 23 -3 29 10 29 13 0 12 5 -7 30 -12 16 -30 30 -40 30
-10 0 -19 5 -19 10 -1 6 -2 15 -3 20 -2 15 -28 30 -41 23 -5 -3 -4 0 3 8 16
18 15 29 -3 29 -8 0 -15 7 -15 16 0 12 -6 15 -25 10 -22 -6 -25 -4 -22 16 2
13 2 17 0 10 -6 -17 -43 -15 -43 2 0 8 -13 23 -30 33 -32 18 -40 43 -15 43 8
0 15 5 15 10 0 6 -13 10 -30 10 -20 0 -30 5 -30 15 0 8 7 15 15 15 8 0 15 5
15 10 0 13 -17 13 -25 0 -3 -5 -13 -10 -21 -10 -16 0 -19 37 -3 42 6 2 -2 18
-19 35 -30 33 -48 104 -35 140 3 10 -6 5 -20 -12 -15 -16 -27 -25 -27 -19 0 5
4 14 9 20 5 5 11 22 13 39 4 38 -25 46 -53 16 -23 -24 -44 -28 -35 -6 3 9 0
15 -10 15 -8 0 -12 5 -9 11 7 10 -29 52 -37 43 -3 -2 -11 14 -18 35 -7 22 -19
42 -26 45 -7 3 -25 24 -40 48 -43 70 -95 119 -119 112 -18 -6 -18 -5 -5 9 22
24 88 6 122 -32 19 -21 33 -29 45 -24 16 6 17 5 3 -12 -14 -17 -13 -18 8 -13
25 7 28 -1 10 -21 -11 -10 -9 -16 10 -28 12 -9 22 -22 22 -29 0 -8 4 -14 10
-14 5 0 12 -16 16 -36 4 -19 12 -38 19 -40 7 -3 11 -14 8 -25 -6 -20 6 -25 22
-10 6 4 25 11 43 14 24 5 32 3 32 -8 0 -29 25 -15 26 15 1 17 -3 30 -8 30 -5
0 -2 7 6 16 24 23 38 13 42 -29 4 -42 10 -57 26 -57 6 0 8 9 5 20 -3 11 -1 23
4 26 5 3 9 22 9 42 0 49 12 68 30 47 20 -24 33 -18 27 14 -3 15 -1 33 4 38 13
13 21 151 9 158 -6 4 -10 24 -10 46 0 28 -4 39 -12 37 -7 -3 -14 -10 -14 -16
-1 -7 -2 -17 -3 -23 0 -5 -6 -7 -12 -3 -6 3 -9 19 -7 35 3 17 -1 30 -9 33 -15
6 -13 25 5 44 6 7 12 19 12 25 0 8 -3 8 -8 2 -4 -5 -16 -15 -27 -21 -16 -9
-20 -22 -20 -59 0 -40 -4 -49 -26 -61 -15 -7 -30 -25 -33 -39 -4 -14 -11 -25
-17 -25 -7 0 -7 6 0 17 7 13 5 23 -6 35 -15 16 -15 20 0 36 23 25 21 35 -3 27
-15 -5 -21 0 -26 22 -4 15 -9 31 -11 36 -6 10 -34 -20 -32 -35 4 -32 -2 -47
-16 -42 -8 4 -15 1 -15 -5 0 -21 -55 -101 -67 -97 -7 3 -10 -1 -7 -9 3 -8 3
-19 -1 -26 -15 -24 -34 49 -29 113 3 42 1 58 -5 48 -17 -26 -20 -6 -10 69 7
52 7 77 0 84 -8 8 -11 5 -13 -8 0 -11 -2 -25 -2 -32 -1 -7 -7 -18 -15 -25 -11
-11 -12 -9 -7 8 4 12 2 33 -5 47 -9 19 -8 32 4 58 42 99 43 116 5 106 -16 -5
-19 -2 -15 14 3 10 1 21 -4 24 -4 3 -6 19 -2 35 3 17 0 36 -6 44 -9 10 -7 19
9 37 l21 24 -7 -25 -6 -25 21 25 c12 14 37 42 57 63 35 36 41 64 9 37 -18 -15
-19 -7 -4 21 8 17 7 23 -8 35 -17 13 -17 15 0 28 9 7 17 18 17 25 0 6 7 11 15
11 8 0 15 -5 15 -12 0 -6 2 -9 5 -6 9 9 -6 38 -16 32 -17 -10 -65 -13 -79 -4
-12 7 -12 12 -2 22 6 6 12 21 12 32 0 10 3 16 6 13 4 -3 16 -1 28 5 17 9 19 8
8 -3 -14 -15 -16 -39 -3 -39 5 0 11 14 15 32 7 36 -9 62 -24 38 -8 -13 -10
-12 -10 4 0 20 57 119 99 174 54 69 130 138 167 151 21 7 59 27 83 43 25 17
55 34 68 39 13 5 23 13 23 18 0 5 9 11 20 14 11 3 20 12 20 21 0 9 7 16 15 16
26 0 16 19 -20 36 -22 10 -35 23 -35 35 0 11 -4 19 -9 19 -14 0 -24 30 -30 90
-3 30 -9 53 -13 50 -11 -7 -40 38 -33 50 4 7 -227 10 -684 10 l-691 0 0 -2000z
m897 1046 c2 -23 0 -24 -13 -12 -8 8 -23 18 -34 21 -31 10 -24 20 12 19 28 -1
33 -5 35 -28z m133 -6 c0 -5 -4 -10 -10 -10 -5 0 -10 5 -10 10 0 6 5 10 10 10
6 0 10 -4 10 -10z m-24 -668 c-4 -3 -11 0 -16 8 -15 24 -11 33 6 15 9 -9 13
-19 10 -23z m134 -24 c0 -13 -9 -34 -20 -48 -22 -28 -24 -21 -9 33 11 41 29
50 29 15z m150 -46 c0 -4 -11 -9 -25 -10 -28 -2 -34 14 -7 21 19 4 32 0 32
-11z m-399 -59 c15 -27 22 -51 20 -83 -1 -34 1 -41 9 -30 7 11 9 4 4 -27 -4
-28 -2 -48 6 -58 24 -29 33 -16 26 39 -6 53 7 86 20 52 3 -9 14 -16 25 -16 22
0 49 -37 49 -68 0 -22 -3 -24 -36 -17 l-37 6 7 -32 c3 -18 7 -33 9 -34 1 -1
19 -14 40 -30 34 -25 41 -27 59 -16 27 17 36 5 44 -54 7 -51 29 -95 46 -95 6
0 8 12 5 30 -4 16 -2 32 3 35 6 3 11 -2 12 -12 4 -56 2 -73 -10 -78 -8 -3 -12
-12 -9 -19 3 -8 -3 -25 -14 -37 l-19 -22 -40 22 c-43 24 -49 19 -23 -19 23
-35 33 -40 74 -40 41 0 58 -22 63 -81 2 -20 6 -41 10 -48 13 -20 -3 -25 -22
-8 -10 10 -24 17 -30 17 -14 0 -69 73 -142 189 -61 96 -100 184 -100 225 0 34
-36 164 -50 181 -7 8 -10 24 -7 36 3 12 3 18 0 15 -14 -13 -29 32 -25 72 2 23
5 42 7 42 2 0 13 -17 26 -37z m447 -11 c2 -7 -6 -12 -17 -12 -21 0 -27 11 -14
24 9 9 26 2 31 -12z m29 -54 c-3 -8 -6 -5 -6 6 -1 11 2 17 5 13 3 -3 4 -12 1
-19z m-90 -40 c-3 -8 -6 -5 -6 6 -1 11 2 17 5 13 3 -3 4 -12 1 -19z m1123
-186 c0 -10 7 -28 16 -40 31 -44 144 -19 144 33 0 19 4 22 23 18 12 -3 32 -15
44 -26 18 -16 20 -23 10 -38 -17 -27 -27 -24 -28 9 -2 23 -2 24 -6 5 -3 -15
-12 -23 -26 -24 -21 -2 -21 -2 1 -6 32 -6 39 -30 15 -52 -15 -14 -37 -19 -96
-20 l-77 -1 10 26 c9 24 9 25 -5 14 -8 -7 -15 -19 -15 -26 0 -19 -34 -18 -50
1 -15 19 -5 49 15 41 8 -3 17 -1 20 4 4 6 -5 10 -18 10 -21 0 -24 4 -20 23 4
18 3 19 -6 7 -6 -8 -11 -25 -11 -37 0 -31 -11 -29 -44 6 -30 32 -30 61 1 62
10 0 34 6 53 13 48 19 50 18 50 -2z m-1210 -62 c0 -5 -5 -10 -11 -10 -5 0 -7
5 -4 10 3 6 8 10 11 10 2 0 4 -4 4 -10z m1150 -70 c0 -5 -5 -10 -11 -10 -5 0
-7 5 -4 10 3 6 8 10 11 10 2 0 4 -4 4 -10z m451 -206 c-9 -28 -9 -29 -10 -3
-1 14 2 29 6 32 11 12 13 2 4 -29z m-14 -91 c-3 -10 -5 -4 -5 12 0 17 2 24 5
18 2 -7 2 -21 0 -30z m-484 -50 c6 -34 1 -43 -24 -43 -23 0 -24 9 -4 36 8 12
11 24 8 28 -3 3 -2 6 4 6 6 0 13 -12 16 -27z m237 -13 c0 -5 -7 -10 -15 -10
-8 0 -15 5 -15 10 0 6 7 10 15 10 8 0 15 -4 15 -10z m-920 -170 c0 -5 -5 -10
-11 -10 -5 0 -7 5 -4 10 3 6 8 10 11 10 2 0 4 -4 4 -10z m20 -40 c0 -5 -9 -14
-20 -20 -24 -13 -26 -7 -4 14 18 18 24 20 24 6z m60 -4 c0 -8 -4 -17 -9 -21
-12 -7 -24 12 -16 25 9 15 25 12 25 -4z m-120 -14 c0 -4 -5 -13 -11 -19 -9 -9
-7 -19 7 -40 15 -23 19 -25 22 -10 6 28 22 19 22 -13 0 -16 4 -30 10 -30 5 0
7 7 4 15 -4 8 -1 15 5 15 18 0 25 -31 10 -41 -11 -7 -11 -9 3 -9 10 0 16 -7
16 -17 0 -10 0 -22 2 -28 13 -50 -12 -85 -47 -69 -10 4 -23 6 -30 5 -13 -2
-27 34 -18 48 3 6 -1 13 -8 18 -8 4 -16 19 -19 33 -3 14 -9 33 -13 43 -6 13
-4 16 9 11 20 -8 21 14 1 40 -13 17 -13 22 2 38 17 19 33 24 33 10z m1288 -29
c20 -15 62 -48 92 -74 75 -63 170 -118 255 -146 l70 -23 -77 3 c-62 2 -74 0
-66 -11 22 -26 -5 -26 -27 1 -13 15 -27 27 -30 27 -3 0 -19 15 -34 33 -16 18
-45 39 -65 47 -24 9 -35 19 -31 28 4 10 0 12 -11 8 -20 -8 -67 21 -59 34 4 6
0 10 -7 10 -7 0 -23 20 -35 45 -12 25 -20 45 -17 45 3 0 22 -12 42 -27z
m-1198 -13 c0 -5 -7 -7 -15 -4 -8 4 -12 10 -9 15 6 11 24 2 24 -11z m207 -36
c-3 -3 -12 -4 -19 -1 -8 3 -5 6 6 6 11 1 17 -2 13 -5z m-45 -71 c5 -58 4 -80
-6 -98 -5 -11 -13 -38 -17 -60 -6 -37 -7 -38 -8 -8 -1 26 -6 32 -31 38 -28 6
-30 10 -27 41 2 23 15 47 37 69 38 39 49 43 52 18z m751 0 c-7 -3 -13 -17 -13
-31 0 -21 -2 -24 -10 -12 -10 15 -13 8 -11 -20 1 -9 -8 -16 -24 -16 -31 -2
-31 -1 2 45 15 21 35 37 47 38 12 1 15 -1 9 -4z m-243 -24 c0 -6 -4 -7 -10 -4
-5 3 -10 11 -10 16 0 6 5 7 10 4 6 -3 10 -11 10 -16z m-215 -8 c44 -6 48 -8
30 -18 -11 -6 -41 -14 -68 -18 -35 -5 -47 -11 -45 -23 2 -8 -3 -17 -9 -19 -8
-3 -13 4 -13 16 0 24 -28 29 -36 6 -8 -20 -23 -19 -46 2 -18 16 -19 16 -25 -5
-3 -12 -12 -22 -19 -22 -9 0 -14 -12 -15 -32 l-1 -33 -10 29 c-8 20 -7 30 1
35 6 4 11 16 10 27 -5 49 -1 54 39 49 20 -3 46 -2 57 2 l20 6 -20 9 c-20 8 39
4 150 -11z m-498 -87 c-3 -3 -12 -4 -19 -1 -8 3 -5 6 6 6 11 1 17 -2 13 -5z
m318 -44 c39 0 52 -14 34 -36 -10 -13 -14 -13 -28 0 -9 9 -22 12 -29 7 -15 -9
18 -44 40 -40 7 1 29 -4 48 -12 19 -7 40 -12 45 -10 6 2 64 5 130 5 101 1 122
-2 132 -16 7 -9 10 -23 7 -32 -4 -10 0 -18 10 -22 26 -10 18 -27 -9 -20 -14 4
-35 1 -48 -6 -12 -7 -29 -13 -37 -14 -8 -2 -25 -15 -38 -29 -15 -18 -28 -24
-41 -20 -11 3 -22 1 -26 -4 -4 -7 -12 -7 -25 1 -15 10 -22 10 -32 0 -19 -19
-58 -15 -58 6 -1 16 -1 16 -11 0 -5 -10 -17 -18 -24 -18 -8 0 -15 -4 -15 -10
0 -5 -5 -10 -10 -10 -6 0 -8 11 -4 28 7 24 6 26 -9 14 -19 -16 -38 -8 -30 13
4 11 1 13 -11 9 -13 -5 -16 1 -18 32 l-1 39 -4 -37 c-3 -25 -9 -38 -19 -38 -8
0 -14 5 -14 10 0 6 5 10 10 10 6 0 8 10 4 24 -3 13 -1 27 5 30 6 4 11 18 11
32 0 13 4 24 9 24 11 0 23 29 16 40 -8 13 -35 0 -35 -17 0 -8 -4 -12 -9 -9 -5
4 -8 14 -6 24 2 9 4 20 4 24 1 3 11 4 23 0 17 -4 20 -2 14 13 -3 10 -3 27 1
39 7 21 7 21 11 -1 3 -19 10 -23 37 -23z m-202 -12 c-3 -16 -10 -28 -15 -28
-6 0 -7 7 -4 16 3 9 6 25 6 37 0 13 4 17 9 12 5 -6 7 -22 4 -37z m17 -53 c0
-8 -4 -15 -10 -15 -18 0 -11 -19 17 -45 39 -36 7 -33 -37 4 -33 27 -34 28 -12
35 12 4 22 14 22 22 0 8 5 14 10 14 6 0 10 -7 10 -15z m34 -31 c11 -28 6 -38
-9 -18 -8 10 -15 22 -15 27 0 13 18 7 24 -9z m76 -14 c0 -5 -4 -10 -10 -10 -5
0 -10 5 -10 10 0 6 5 10 10 10 6 0 10 -4 10 -10z m520 -40 c0 -11 -4 -20 -10
-20 -5 0 -10 9 -10 20 0 11 5 20 10 20 6 0 10 -9 10 -20z m-530 -604 c0 -3 -4
-8 -10 -11 -5 -3 -10 -1 -10 4 0 6 5 11 10 11 6 0 10 -2 10 -4z m43 -28 c-5
-27 -23 -40 -23 -17 0 13 20 52 25 47 2 -1 1 -15 -2 -30z m322 6 c-9 -14 -14
-29 -10 -32 3 -4 10 0 15 8 6 8 10 10 10 4 0 -5 -7 -19 -15 -30 -9 -12 -14
-14 -15 -6 0 23 -18 3 -25 -28 -7 -31 -25 -42 -25 -15 0 33 53 125 72 125 6 0
3 -12 -7 -26z"/>
<path d="M1030 1904 c0 -3 9 -17 20 -31 11 -14 20 -20 20 -12 -1 23 -40 66
-40 43z"/>
<path d="M996 1827 c3 -10 9 -15 12 -12 3 3 0 11 -7 18 -10 9 -11 8 -5 -6z"/>
<path d="M1030 1775 c7 -9 15 -13 17 -11 7 7 -7 26 -19 26 -6 0 -6 -6 2 -15z"/>
<path d="M1100 1770 c0 -13 18 -22 24 -11 3 5 -1 11 -9 15 -8 3 -15 1 -15 -4z"/>
<path d="M2495 1840 c3 -5 14 -10 23 -10 15 0 15 2 2 10 -20 13 -33 13 -25 0z"/>
<path d="M1780 984 c0 -7 6 -16 13 -20 6 -4 9 -4 5 1 -4 4 -3 13 2 20 7 8 5
12 -5 12 -8 0 -15 -6 -15 -13z"/>
<path d="M2208 753 c6 -2 18 -2 25 0 6 3 1 5 -13 5 -14 0 -19 -2 -12 -5z"/>
<path d="M1560 3740 c0 -5 5 -10 11 -10 5 0 7 5 4 10 -3 6 -8 10 -11 10 -2 0
-4 -4 -4 -10z"/>
<path d="M1110 3365 c-7 -14 -17 -25 -22 -25 -4 0 -8 -6 -8 -12 1 -15 50 38
50 53 0 15 -6 10 -20 -16z"/>
<path d="M1568 3355 c-16 -13 -28 -26 -28 -28 0 -6 68 -2 75 5 8 8 -3 48 -13
48 -4 0 -19 -12 -34 -25z"/>
<path d="M1655 3360 c28 -12 37 -12 30 0 -3 6 -16 10 -28 9 -21 0 -21 -1 -2
-9z"/>
<path d="M1702 3314 c-16 -18 -7 -34 20 -34 17 0 18 2 8 15 -8 9 -9 15 -2 15
6 0 14 -4 17 -10 3 -5 16 -10 29 -10 12 0 27 -5 34 -12 7 -7 12 -9 12 -4 0 20
-61 57 -93 56 -7 -1 -18 -7 -25 -16z"/>
<path d="M1940 3316 c0 -16 28 -42 36 -33 7 6 -18 47 -28 47 -5 0 -8 -6 -8
-14z"/>
<path d="M1450 3310 c0 -5 4 -10 9 -10 6 0 13 5 16 10 3 6 -1 10 -9 10 -9 0
-16 -4 -16 -10z"/>
<path d="M1070 3301 c0 -5 5 -13 10 -16 6 -3 10 -2 10 4 0 5 -4 13 -10 16 -5
3 -10 2 -10 -4z"/>
<path d="M2211 3297 c-5 -5 -7 -16 -3 -25 4 -11 1 -14 -11 -9 -23 9 -21 3 7
-28 l24 -25 5 22 c4 12 1 25 -5 29 -14 9 -1 29 18 29 8 0 14 4 14 8 0 11 -38
10 -49 -1z"/>
<path d="M1498 3282 c4 -11 -1 -13 -16 -7 -13 3 -22 2 -22 -4 0 -5 -10 -11
-22 -13 -13 -2 -22 -9 -20 -16 1 -7 -9 -12 -27 -12 -30 0 -51 -27 -28 -36 27
-10 150 1 155 14 2 6 -3 12 -11 12 -8 0 -17 7 -21 15 -3 10 1 15 12 15 9 0 30
10 45 23 l29 22 -40 0 c-30 0 -38 -3 -34 -13z"/>
<path d="M1585 3260 c-4 -6 5 -10 20 -10 15 0 24 4 20 10 -3 6 -12 10 -20 10
-8 0 -17 -4 -20 -10z"/>
<path d="M1990 3255 c-8 -9 -8 -15 -2 -15 12 0 26 19 19 26 -2 2 -10 -2 -17
-11z"/>
<path d="M2260 3250 c0 -19 3 -21 12 -12 9 9 9 15 0 24 -9 9 -12 7 -12 -12z"/>
<path d="M1083 3253 c-13 -5 -19 -33 -7 -33 7 0 34 27 34 34 0 7 -10 7 -27 -1z"/>
<path d="M1146 3251 c-4 -7 -5 -15 -2 -18 9 -9 19 4 14 18 -4 11 -6 11 -12 0z"/>
<path d="M1830 3250 c0 -5 5 -10 10 -10 6 0 10 5 10 10 0 6 -4 10 -10 10 -5 0
-10 -4 -10 -10z"/>
<path d="M1540 3240 c-13 -8 -13 -10 2 -10 9 0 20 5 23 10 8 13 -5 13 -25 0z"/>
<path d="M2020 3240 c0 -5 7 -10 15 -10 8 0 15 -4 15 -10 0 -5 6 -10 14 -10 8
0 16 -6 19 -12 2 -7 3 -5 2 4 -2 9 2 19 9 22 7 3 6 8 -4 15 -9 6 -18 7 -26 0
-8 -7 -14 -6 -19 1 -8 13 -25 13 -25 0z"/>
<path d="M2278 3228 c-9 -14 -14 -28 -11 -31 9 -10 35 22 31 40 -2 14 -6 12
-20 -9z"/>
<path d="M1617 3223 c-4 -4 3 -13 15 -20 l23 -12 -27 -1 c-15 0 -30 5 -33 10
-10 16 -38 12 -31 -5 3 -9 0 -15 -10 -15 -34 0 -4 -25 37 -31 50 -7 63 -3 55
17 -6 16 19 20 29 4 3 -5 13 -7 23 -4 9 3 23 8 31 10 16 5 -15 25 -54 36 -11
3 -27 9 -36 12 -8 4 -18 3 -22 -1z"/>
<path d="M2162 3210 c-16 -27 -4 -50 14 -26 7 10 17 15 23 11 6 -3 11 -1 11 4
0 6 -6 11 -14 11 -8 0 -16 5 -18 10 -2 6 -9 1 -16 -10z"/>
<path d="M1115 3200 c-3 -5 -1 -10 4 -10 6 0 11 5 11 10 0 6 -2 10 -4 10 -3 0
-8 -4 -11 -10z"/>
<path d="M1970 3185 c7 -8 17 -15 22 -15 6 0 5 7 -2 15 -7 8 -17 15 -22 15 -6
0 -5 -7 2 -15z"/>
<path d="M2033 3193 c4 -3 1 -13 -6 -21 -10 -13 -9 -14 3 -10 19 6 26 38 9 38
-7 0 -9 -3 -6 -7z"/>
<path d="M2291 3171 c-18 -32 -13 -41 22 -41 27 1 30 2 16 13 -9 7 -14 17 -12
24 7 20 -16 24 -26 4z"/>
<path d="M1438 3175 c-3 -3 -30 -6 -61 -6 -45 -1 -55 -4 -50 -16 3 -8 0 -19
-8 -25 -9 -6 -3 -7 21 -2 30 6 33 5 22 -9 -11 -13 -10 -15 10 -10 31 8 41 26
20 35 -10 4 4 7 33 7 28 1 57 6 65 11 13 8 13 10 -2 10 -9 0 -23 2 -30 5 -8 3
-17 3 -20 0z"/>
<path d="M1795 3169 c-4 -6 -13 -8 -21 -5 -9 3 -14 -1 -14 -13 0 -15 5 -18 22
-13 13 3 31 14 42 24 20 18 20 18 -2 18 -11 0 -24 -5 -27 -11z"/>
<path d="M2220 3170 c0 -15 19 -22 40 -15 29 9 24 20 -10 22 -17 1 -30 -2 -30
-7z"/>
<path d="M2340 3170 c0 -5 9 -10 21 -10 11 0 17 5 14 10 -3 6 -13 10 -21 10
-8 0 -14 -4 -14 -10z"/>
<path d="M1004 3159 c-3 -6 -1 -16 5 -22 8 -8 11 -5 11 11 0 24 -5 28 -16 11z"/>
<path d="M1825 3150 c-3 -5 1 -10 9 -10 9 0 16 5 16 10 0 6 -4 10 -9 10 -6 0
-13 -4 -16 -10z"/>
<path d="M1100 3135 c0 -8 5 -15 10 -15 6 0 10 7 10 15 0 8 -4 15 -10 15 -5 0
-10 -7 -10 -15z"/>
<path d="M1505 3140 c-3 -5 -22 -10 -42 -10 -29 0 -33 -2 -24 -14 10 -12 16
-12 39 0 15 8 33 14 40 14 6 0 12 5 12 10 0 6 -4 10 -9 10 -6 0 -13 -4 -16
-10z"/>
<path d="M1224 3126 c-10 -8 -16 -17 -12 -21 7 -7 48 16 48 27 0 12 -14 9 -36
-6z"/>
<path d="M1115 3085 c-4 -17 -14 -41 -22 -54 -11 -17 -12 -25 -4 -31 8 -4 5
-14 -9 -32 -22 -29 -26 -52 -8 -46 6 2 16 19 22 36 6 18 30 54 54 81 47 55 52
67 21 51 -17 -9 -23 -8 -34 7 -12 17 -14 16 -20 -12z"/>
<path d="M1575 3101 c-6 -5 -45 -17 -88 -26 -42 -9 -80 -21 -83 -26 -3 -5 -14
-9 -26 -9 -17 0 -18 2 -8 15 7 8 21 15 31 15 11 0 19 4 19 10 0 10 -59 2 -73
-10 -5 -4 -9 -15 -11 -23 -3 -25 -37 -57 -60 -57 -21 -1 -21 -1 -2 -15 17 -13
17 -15 3 -15 -9 0 -23 -10 -31 -22 -18 -26 -13 -36 9 -18 20 17 29 7 16 -18
-8 -15 -7 -23 4 -32 12 -10 22 -6 55 24 22 20 44 36 49 36 14 0 111 92 111
106 0 8 6 11 15 8 8 -3 37 2 64 11 28 9 55 14 61 10 5 -3 20 1 32 9 22 16 22
16 -15 16 -20 0 -37 5 -37 10 0 12 -23 13 -35 1z m-205 -91 c0 -5 -4 -10 -10
-10 -5 0 -10 5 -10 10 0 6 5 10 10 10 6 0 10 -4 10 -10z m20 -50 c0 -5 -8 -10
-17 -10 -15 0 -16 2 -3 10 19 12 20 12 20 0z"/>
<path d="M1288 3082 c-45 -27 -43 -46 2 -21 22 13 40 26 40 31 0 11 -11 9 -42
-10z"/>
<path d="M1750 3090 c-12 -8 -9 -10 13 -10 15 0 27 5 27 10 0 13 -20 13 -40 0z"/>
<path d="M1953 3083 c-9 -7 -15 -13 -12 -14 33 -6 63 -1 81 13 l23 18 -37 -3
c-21 -1 -45 -8 -55 -14z"/>
<path d="M2055 3085 c-3 -8 -7 -22 -9 -29 -3 -9 3 -18 15 -21 10 -4 19 -11 19
-17 0 -13 14 -1 16 13 1 5 2 12 3 15 0 4 8 1 16 -6 13 -10 19 -10 34 4 13 12
20 14 23 5 3 -9 10 -9 28 2 14 7 36 15 49 17 21 3 23 1 11 -12 -7 -9 -19 -16
-27 -16 -8 0 -11 -5 -8 -10 4 -6 13 -7 23 -1 10 5 31 7 47 5 17 -2 22 -1 13 2
-10 3 -15 11 -11 20 3 8 -1 14 -11 14 -9 0 -16 3 -16 8 0 14 -65 7 -77 -8 -11
-13 -12 -12 -13 8 0 32 -19 27 -35 -10 -8 -18 -14 -25 -15 -16 0 22 -18 32
-33 19 -8 -6 -18 -6 -27 -1 -13 8 -12 10 2 10 9 0 20 5 23 10 3 6 -3 10 -15
10 -11 0 -23 -7 -25 -15z"/>
<path d="M2328 3093 c6 -2 18 -2 25 0 6 3 1 5 -13 5 -14 0 -19 -2 -12 -5z"/>
<path d="M2533 3093 c-7 -2 -13 -11 -13 -19 0 -7 -6 -11 -13 -8 -18 7 -72 -52
-56 -61 7 -5 17 -1 24 8 15 21 21 21 28 3 4 -10 1 -13 -9 -9 -10 3 -12 0 -8
-10 4 -12 1 -14 -15 -10 -12 3 -21 1 -21 -6 0 -16 21 -14 59 5 18 9 35 13 38
10 4 -3 1 -6 -5 -6 -22 0 -12 -31 14 -40 14 -6 22 -15 19 -20 -3 -6 0 -13 9
-16 8 -3 22 -21 31 -40 9 -19 21 -34 26 -34 6 0 8 -8 4 -19 -4 -12 4 -30 21
-50 20 -24 23 -32 11 -36 -11 -5 -12 -15 -7 -46 4 -23 5 -50 2 -61 -3 -11 0
-23 7 -27 18 -11 -35 -101 -60 -101 -21 0 -25 -15 -8 -26 6 -3 15 0 20 7 4 7
9 11 11 9 23 -35 24 -47 11 -78 -12 -28 -12 -37 -1 -49 10 -13 10 -17 1 -20
-23 -8 -15 -32 9 -25 17 4 20 2 15 -11 -4 -10 -3 -17 1 -17 9 0 32 -59 32 -82
0 -9 11 -19 25 -22 18 -5 25 -13 25 -30 0 -13 7 -26 15 -30 13 -4 14 7 12 74
-4 81 -21 120 -54 120 -7 0 -13 5 -13 10 0 6 7 10 15 10 21 0 19 24 -5 45 -13
11 -17 22 -11 29 5 6 7 25 6 41 -5 43 5 75 24 75 13 1 12 4 -6 19 -17 14 -23
30 -23 60 0 40 -14 62 -24 39 -2 -7 -4 16 -4 52 1 36 -4 75 -11 88 -16 30 -7
40 17 19 27 -25 36 -21 12 5 -22 24 -25 35 -10 40 14 4 -27 88 -43 88 -9 0 -8
3 1 9 11 7 11 9 -2 14 -9 4 -16 12 -16 19 0 8 -9 20 -20 28 -11 8 -20 22 -20
30 0 18 -19 40 -33 40 -5 0 -7 -9 -4 -21 4 -16 3 -18 -9 -8 -17 14 -18 36 -1
42 6 3 8 5 2 5 -5 0 -16 -2 -22 -5z m17 -73 c0 -5 -2 -10 -4 -10 -3 0 -8 5
-11 10 -3 6 -1 10 4 10 6 0 11 -4 11 -10z m130 -135 c0 -14 -4 -25 -10 -25 -5
0 -10 4 -10 9 0 5 -3 16 -6 25 -4 11 -1 16 10 16 10 0 16 -9 16 -25z m10 -371
c0 -8 -6 -11 -15 -8 -8 4 -15 9 -15 13 0 4 7 8 15 8 8 0 15 -6 15 -13z"/>
<path d="M1873 3072 c-24 -4 -54 -32 -34 -32 7 0 21 5 31 10 15 8 21 6 28 -6
7 -12 15 -15 28 -9 15 6 16 8 4 12 -8 3 -19 10 -25 17 -5 6 -20 10 -32 8z"/>
<path d="M2421 3066 c-9 -11 -6 -12 14 -8 14 2 28 8 31 13 9 15 -33 10 -45 -5z"/>
<path d="M1775 3030 c-3 -5 1 -10 10 -10 9 0 13 5 10 10 -3 6 -8 10 -10 10 -2
0 -7 -4 -10 -10z"/>
<path d="M2000 3031 c0 -5 -12 -12 -27 -14 -23 -3 -21 -4 10 -6 35 -1 49 11
27 24 -5 3 -10 2 -10 -4z"/>
<path d="M2379 3024 c-12 -14 -11 -16 5 -13 11 2 21 10 24 17 5 17 -13 15 -29
-4z"/>
<path d="M1688 3023 c7 -3 16 -2 19 1 4 3 -2 6 -13 5 -11 0 -14 -3 -6 -6z"/>
<path d="M1738 3023 c7 -3 16 -2 19 1 4 3 -2 6 -13 5 -11 0 -14 -3 -6 -6z"/>
<path d="M1507 3003 c-9 -9 -9 -43 1 -43 4 0 12 11 19 25 9 19 8 25 -1 25 -7
0 -16 -3 -19 -7z"/>
<path d="M1562 3001 c4 -13 18 -16 19 -4 0 4 -5 9 -11 12 -7 2 -11 -2 -8 -8z"/>
<path d="M2180 2990 c0 -5 4 -10 9 -10 6 0 13 5 16 10 3 6 -1 10 -9 10 -9 0
-16 -4 -16 -10z"/>
<path d="M2367 2984 c-4 -4 -4 -10 -1 -15 6 -10 34 0 34 12 0 10 -24 12 -33 3z"/>
<path d="M2206 2971 c-3 -5 1 -12 10 -15 20 -8 29 -1 19 13 -8 13 -22 14 -29
2z"/>
<path d="M2280 2970 c0 -5 5 -10 10 -10 6 0 10 5 10 10 0 6 -4 10 -10 10 -5 0
-10 -4 -10 -10z"/>
<path d="M1933 2952 c-20 -2 -33 -9 -33 -17 0 -7 -9 -17 -20 -20 -24 -8 -27
-25 -3 -25 36 0 143 23 143 30 0 5 13 11 30 15 84 18 3 30 -117 17z m64 -28
c-3 -3 -12 -4 -19 -1 -8 3 -5 6 6 6 11 1 17 -2 13 -5z"/>
<path d="M1775 2935 l-30 -13 40 -1 c22 0 51 6 65 14 l25 14 -35 0 c-19 0 -48
-6 -65 -14z"/>
<path d="M2120 2940 c0 -5 5 -10 11 -10 5 0 7 5 4 10 -3 6 -8 10 -11 10 -2 0
-4 -4 -4 -10z"/>
<path d="M1664 2905 c-15 -11 -16 -14 -3 -15 8 0 24 7 35 15 15 11 16 14 3 15
-8 0 -24 -7 -35 -15z"/>
<path d="M1600 2892 c0 -4 -10 -12 -22 -17 -12 -6 -23 -16 -26 -22 -5 -18 23
-16 39 3 7 9 22 14 36 11 27 -5 29 -1 9 19 -16 15 -36 19 -36 6z"/>
<path d="M1784 2884 c-18 -15 -17 -15 16 -10 43 8 64 26 29 26 -14 0 -34 -7
-45 -16z"/>
<path d="M2558 2888 c5 -5 16 -8 23 -6 8 3 3 7 -10 11 -17 4 -21 3 -13 -5z"/>
<path d="M1070 2870 c-6 -11 -7 -20 -2 -20 6 0 12 9 15 20 3 11 3 20 1 20 -2
0 -8 -9 -14 -20z"/>
<path d="M1730 2880 c-12 -8 -11 -10 8 -10 12 0 22 5 22 10 0 13 -11 13 -30 0z"/>
<path d="M1688 2853 c6 -2 18 -2 25 0 6 3 1 5 -13 5 -14 0 -19 -2 -12 -5z"/>
<path d="M2020 2850 c0 -5 5 -10 10 -10 6 0 10 5 10 10 0 6 -4 10 -10 10 -5 0
-10 -4 -10 -10z"/>
<path d="M2321 2844 c0 -11 3 -14 6 -6 3 7 2 16 -1 19 -3 4 -6 -2 -5 -13z"/>
<path d="M1103 2823 c-4 -10 -11 -21 -17 -25 -6 -4 -7 -10 -3 -14 9 -9 48 36
41 47 -8 13 -14 11 -21 -8z"/>
<path d="M1267 2834 c-3 -3 -3 -12 0 -20 4 -11 7 -11 19 1 8 7 14 16 14 19 0
8 -25 8 -33 0z"/>
<path d="M1170 2663 c0 -8 5 -13 12 -11 18 6 21 25 3 25 -8 0 -15 -7 -15 -14z"/>
<path d="M1099 2628 c-10 -19 -12 -20 -21 -4 -15 27 -38 1 -38 -43 0 -37 1
-37 37 -34 20 1 43 -3 50 -9 19 -16 33 1 39 47 4 33 3 36 -11 25 -21 -17 -29
-7 -15 19 9 18 8 21 -9 21 -11 0 -25 -10 -32 -22z"/>
<path d="M1302 2585 c-8 -18 -8 -25 1 -29 8 -3 7 -9 -5 -19 -19 -15 -24 -37
-10 -37 5 0 19 8 30 19 22 19 29 41 13 41 -5 0 -7 8 -4 19 7 29 -13 34 -25 6z"/>
<path d="M2817 2603 c-2 -5 -1 -35 2 -68 5 -55 8 -60 31 -63 20 -3 23 -1 13 9
-18 18 -16 59 1 59 8 0 17 -6 19 -12 3 -7 6 -3 6 9 1 16 -4 20 -18 16 -14 -3
-21 3 -29 26 -11 31 -17 37 -25 24z"/>
<path d="M1386 2565 c-3 -8 -1 -15 4 -15 6 0 10 7 10 15 0 8 -2 15 -4 15 -2 0
-6 -7 -10 -15z"/>
<path d="M1020 2510 c0 -5 5 -10 11 -10 5 0 7 5 4 10 -3 6 -8 10 -11 10 -2 0
-4 -4 -4 -10z"/>
<path d="M1380 2450 c0 -5 7 -10 15 -10 8 0 15 5 15 10 0 6 -7 10 -15 10 -8 0
-15 -4 -15 -10z"/>
<path d="M2865 2430 c4 -6 11 -8 16 -5 14 9 11 15 -7 15 -8 0 -12 -5 -9 -10z"/>
<path d="M2585 2370 c-3 -5 -1 -10 4 -10 6 0 11 5 11 10 0 6 -2 10 -4 10 -3 0
-8 -4 -11 -10z"/>
<path d="M2610 2350 c0 -5 5 -10 10 -10 6 0 10 5 10 10 0 6 -4 10 -10 10 -5 0
-10 -4 -10 -10z"/>
<path d="M2877 2280 c3 -11 9 -20 14 -20 11 0 11 3 3 24 -9 23 -23 20 -17 -4z"/>
<path d="M2414 2202 c-10 -9 -29 -16 -41 -14 -16 2 -23 -2 -23 -12 0 -19 -26
-21 -33 -3 -2 7 -8 8 -13 3 -5 -5 -4 -11 4 -13 6 -3 12 -11 12 -18 0 -12 21
-25 42 -25 6 0 6 6 -2 15 -10 12 -8 16 15 25 14 5 30 10 34 10 4 0 21 11 37
25 26 22 27 25 8 25 -11 0 -29 -8 -40 -18z"/>
<path d="M1746 2112 c-2 -4 -1 -14 4 -21 11 -19 41 -6 34 14 -6 16 -29 20 -38
7z"/>
<path d="M1810 2100 c-12 -8 -11 -10 8 -10 12 0 22 5 22 10 0 13 -11 13 -30 0z"/>
<path d="M2780 2105 c0 -13 25 -55 32 -55 6 0 7 6 4 13 -3 6 -9 20 -12 30 -6
15 -24 25 -24 12z"/>
<path d="M1864 2078 c-2 -3 -1 -14 2 -23 5 -13 2 -15 -20 -9 -14 3 -32 2 -39
-4 -16 -13 -124 -35 -136 -28 -20 13 -110 8 -141 -8 -43 -21 -45 -21 -58 9 -8
17 -20 25 -36 25 -13 0 -26 7 -30 15 -11 31 -27 15 -20 -20 4 -24 2 -35 -5
-35 -7 0 -9 -4 -6 -10 3 -5 14 -10 25 -10 24 0 33 -25 13 -42 -14 -11 -13 -14
12 -18 16 -3 30 -11 31 -18 1 -7 0 -8 -3 -2 -8 16 -23 1 -23 -24 0 -13 -6 -29
-14 -35 -17 -14 -70 -8 -92 10 -8 6 -17 9 -21 6 -3 -4 5 -15 18 -26 26 -22 73
-31 134 -27 29 2 57 -7 102 -30 63 -33 92 -38 196 -35 53 1 61 4 103 43 25 23
43 47 40 55 -3 7 -2 13 3 13 5 0 12 11 15 25 6 24 26 36 26 15 0 -18 20 -11
21 8 1 9 5 4 8 -13 l8 -30 12 44 c7 23 10 45 8 48 -3 2 6 15 19 28 30 30 40
70 23 91 -12 14 -14 14 -26 -2 -12 -17 -13 -17 -13 0 0 9 -5 14 -10 11 -6 -4
-17 -2 -24 4 -13 11 -95 11 -102 -1z m43 -172 c7 -6 -22 -36 -35 -36 -6 0 -12
6 -15 13 -2 6 -7 9 -11 6 -10 -10 5 -39 20 -39 16 0 16 -2 8 -24 -5 -14 -8
-14 -27 -1 -12 8 -31 15 -42 15 -16 0 -13 -4 14 -21 32 -19 33 -21 15 -33 -11
-8 -33 -16 -50 -20 -26 -6 -34 -3 -48 19 -9 14 -21 25 -27 25 -7 0 -5 -10 5
-25 l16 -25 -53 0 c-31 0 -61 6 -73 15 -18 14 -18 14 4 15 29 0 62 17 62 32 0
6 -8 4 -18 -5 -26 -23 -100 -22 -131 2 l-24 19 22 7 c15 4 29 1 41 -10 18 -16
20 -16 37 0 16 17 16 17 -5 11 -16 -5 -22 -3 -22 7 0 17 18 16 85 -3 51 -14
115 4 130 37 5 12 16 24 25 26 21 4 91 0 97 -7z"/>
<path d="M1371 1946 c-10 -12 -8 -13 8 -9 12 3 18 9 15 14 -7 12 -10 11 -23
-5z"/>
<path d="M1965 1829 c-4 -6 -5 -12 -2 -15 2 -3 7 2 10 11 7 17 1 20 -8 4z"/>
<path d="M2831 1811 c-1 -27 2 -32 11 -23 8 8 8 17 0 34 -10 22 -11 21 -11
-11z"/>
<path d="M1987 1813 c-10 -9 -8 -43 2 -43 5 0 9 11 9 25 0 27 -1 28 -11 18z"/>
<path d="M1980 1735 c0 -8 7 -15 15 -15 8 0 15 4 15 9 0 5 -7 11 -15 15 -9 3
-15 0 -15 -9z"/>
<path d="M1750 1719 c0 -5 5 -7 10 -4 6 3 10 8 10 11 0 2 -4 4 -10 4 -5 0 -10
-5 -10 -11z"/>
<path d="M1906 1471 c-4 -7 -5 -15 -2 -18 9 -9 19 4 14 18 -4 11 -6 11 -12 0z"/>
<path d="M2050 290 c-12 -8 -11 -10 7 -10 12 0 25 5 28 10 8 13 -15 13 -35 0z"/>
</g>
</svg>
