<?xml version="1.0" standalone="no"?>
<!DOCTYPE svg PUBLIC "-//W3C//DTD SVG 20010904//EN"
 "http://www.w3.org/TR/2001/REC-SVG-20010904/DTD/svg10.dtd">
<svg version="1.0" xmlns="http://www.w3.org/2000/svg"
 width="350.000000pt" height="377.000000pt" viewBox="0 0 350.000000 377.000000"
 preserveAspectRatio="xMidYMid meet">

<g transform="translate(0.000000,377.000000) scale(0.100000,-0.100000)"
fill="#000000" stroke="none">
<path d="M1200 3754 c-94 -17 -231 -59 -290 -89 -60 -31 -90 -64 -97 -111 -8
-52 -12 -56 -108 -114 -98 -59 -137 -100 -179 -190 -26 -55 -32 -79 -34 -158
l-4 -94 -46 -19 c-86 -37 -144 -116 -126 -171 4 -12 22 -45 40 -71 19 -27 34
-53 34 -57 0 -23 -17 -44 -56 -71 -49 -34 -57 -64 -24 -94 26 -24 33 -47 21
-77 -18 -47 69 -252 119 -280 19 -11 38 -35 50 -65 27 -63 55 -116 100 -183
20 -30 39 -63 43 -73 3 -9 23 -25 44 -35 46 -21 53 -29 53 -64 0 -43 20 -76
50 -83 22 -5 26 -10 22 -34 -9 -64 33 -140 61 -112 15 15 -28 184 -101 390
-78 223 -79 235 -26 426 l38 138 -27 106 c-29 114 -34 201 -14 241 17 34 51
36 181 11 166 -32 216 -29 481 34 29 7 29 7 10 -8 -19 -16 -19 -16 16 -17 54
0 194 -28 255 -51 38 -14 68 -36 107 -78 l54 -59 6 -118 c6 -101 10 -126 34
-173 23 -47 28 -72 31 -150 5 -110 -8 -185 -48 -285 -25 -62 -32 -100 -45
-257 -9 -101 -21 -204 -26 -229 -14 -60 -69 -131 -171 -218 -82 -69 -87 -72
-159 -82 -124 -18 -173 -3 -334 102 l-60 39 59 -54 c32 -31 86 -72 120 -92
l61 -36 135 3 135 3 140 108 141 107 73 140 c40 77 73 140 75 140 1 0 -2 -46
-6 -102 -16 -221 -44 -314 -149 -503 -34 -60 -74 -137 -89 -170 -32 -72 -104
-302 -102 -329 0 -10 -9 -44 -22 -75 -13 -31 -34 -91 -46 -134 -17 -57 -26
-74 -32 -63 -5 8 -33 85 -63 170 -47 134 -52 156 -39 167 11 9 21 9 39 1 18
-8 26 -8 34 2 9 10 0 40 -35 121 -25 59 -58 142 -72 184 l-27 76 -55 6 c-30 3
-67 9 -81 13 -23 7 -31 2 -61 -36 -78 -96 -81 -116 -80 -528 l0 -345 -13 165
c-8 91 -37 338 -66 550 -28 212 -54 426 -56 475 -5 83 -8 94 -40 137 -29 40
-37 46 -56 39 -12 -5 -170 -66 -352 -135 -181 -69 -341 -132 -355 -139 -47
-24 -74 -105 -115 -353 -14 -85 -30 -167 -36 -182 -24 -63 -29 -189 -14 -328
13 -121 13 -143 0 -201 -8 -35 -15 -66 -15 -69 0 -2 786 -4 1746 -4 l1746 0
-6 272 c-4 150 -11 331 -16 401 -9 117 -12 131 -39 170 -44 64 -250 262 -297
285 -23 12 -95 39 -160 62 -65 22 -161 63 -212 90 -133 71 -301 147 -392 176
-95 31 -172 76 -257 150 -91 81 -107 105 -98 160 l6 44 44 0 c56 0 91 29 134
110 46 85 53 116 39 162 -9 32 -8 61 11 166 12 70 31 167 43 215 34 145 13
257 -70 365 l-34 45 22 44 c17 35 21 53 15 81 -5 21 -7 65 -6 99 2 66 -15 113
-63 170 -14 16 -35 56 -46 87 -27 70 -86 136 -123 136 -18 0 -31 10 -47 35
-30 49 -70 74 -140 88 -38 8 -69 22 -87 39 -52 49 -133 78 -289 103 -105 17
-135 17 -234 -1z"/>
<path d="M1415 1780 c-21 -14 -39 -18 -60 -14 -19 3 -50 -2 -83 -15 -29 -12
-70 -21 -92 -21 -33 0 -47 -8 -99 -56 -52 -48 -61 -61 -61 -91 0 -25 8 -43 29
-64 35 -34 51 -36 77 -8 33 36 89 59 147 59 46 0 61 5 93 31 27 22 46 29 64
26 61 -12 219 -59 261 -78 83 -38 105 -13 74 86 -21 64 -38 81 -131 129 -85
44 -168 50 -219 16z"/>
</g>
</svg>
