<?xml version="1.0" standalone="no"?>
<!DOCTYPE svg PUBLIC "-//W3C//DTD SVG 20010904//EN"
 "http://www.w3.org/TR/2001/REC-SVG-20010904/DTD/svg10.dtd">
<svg version="1.0" xmlns="http://www.w3.org/2000/svg"
 width="1258.000000pt" height="234.000000pt" viewBox="0 0 1258.000000 234.000000"
 preserveAspectRatio="xMidYMid meet">

<g transform="translate(0.000000,234.000000) scale(0.100000,-0.100000)"
fill="#000000" stroke="none">
<path d="M1018 1249 l-3 -821 -28 -24 c-28 -24 -30 -24 -251 -24 l-223 0 -24
26 c-24 25 -24 28 -29 277 l-5 252 -115 0 -115 0 -3 -220 c-4 -256 8 -363 45
-412 13 -18 33 -33 43 -33 10 0 22 -5 25 -10 4 -6 148 -10 401 -10 376 0 396
1 438 20 24 12 49 33 57 48 12 22 14 177 17 890 l3 862 -115 0 -116 0 -2 -821z"/>
<path d="M1600 2060 c-8 -4 -29 -13 -46 -20 -19 -7 -40 -27 -55 -53 l-24 -42
-3 -793 c-3 -889 -7 -840 69 -880 40 -22 49 -22 470 -22 l429 0 0 49 c0 88 30
81 -351 81 l-338 0 -28 24 -28 24 -3 150 c-3 128 -1 152 13 166 15 14 55 16
366 16 l349 0 0 60 0 60 -354 0 c-293 0 -356 2 -365 14 -9 11 -11 109 -9 378
3 408 3 404 77 426 25 8 145 12 355 12 l316 0 0 180 0 180 -412 -1 c-227 0
-420 -4 -428 -9z"/>
<path d="M2775 2060 c-3 -5 -16 -10 -28 -10 -24 0 -65 -33 -84 -66 -29 -52
-34 -211 -31 -914 3 -795 -1 -756 79 -798 40 -21 50 -22 434 -22 434 0 443 1
487 62 l23 33 0 795 0 795 -23 42 c-23 44 -41 58 -102 80 -44 16 -745 19 -755
3z m613 -368 c12 -7 30 -25 40 -39 16 -25 17 -72 17 -626 l0 -599 -28 -24
c-28 -24 -29 -24 -268 -24 -153 0 -248 4 -261 11 -47 25 -48 42 -48 629 0 369
4 566 11 595 13 51 35 74 81 86 54 13 429 6 456 -9z"/>
<path d="M3880 1160 l0 -910 115 0 115 0 0 229 0 230 348 3 c378 3 384 4 426
61 21 28 21 36 21 595 l0 567 -23 47 c-18 35 -33 51 -67 67 -43 20 -59 21
-490 21 l-445 0 0 -910z m695 540 c41 -7 67 -17 85 -35 l25 -25 0 -376 0 -376
-28 -24 -29 -24 -256 2 -257 3 -3 420 c-1 231 0 426 3 432 6 16 368 18 460 3z"/>
<path d="M5223 2047 c-25 -26 -38 -86 -53 -247 -6 -63 -15 -155 -20 -205 -5
-49 -14 -137 -20 -195 -6 -58 -15 -143 -20 -190 -5 -47 -14 -137 -20 -200 -6
-63 -15 -153 -20 -200 -9 -80 -14 -134 -40 -390 -6 -58 -12 -120 -15 -138 l-4
-32 114 0 114 0 5 32 c2 18 9 83 15 143 6 61 14 139 17 175 4 36 11 68 18 72
16 11 518 10 535 -1 13 -8 16 -26 40 -261 6 -52 13 -110 17 -127 l7 -33 113 0
c93 0 114 3 114 15 0 8 -4 47 -9 87 -6 40 -15 125 -21 188 -6 63 -15 156 -20
205 -20 187 -31 300 -65 660 -53 545 -60 604 -83 634 l-19 26 -329 2 c-327 2
-329 2 -351 -20z m492 -341 c14 -10 21 -33 27 -87 26 -232 78 -732 81 -774 l2
-30 -264 -3 -264 -2 7 82 c3 46 10 119 16 163 5 44 14 123 19 175 45 423 51
463 70 477 24 18 281 18 306 -1z"/>
<path d="M6280 1160 l0 -910 115 0 115 0 0 240 0 240 25 6 c14 3 134 5 268 3
232 -4 244 -5 274 -27 42 -30 53 -84 53 -270 1 -194 0 -192 140 -192 l101 0
-15 22 c-13 18 -16 55 -16 198 0 97 -5 193 -11 215 -13 48 -70 105 -105 105
-36 0 -29 12 25 42 88 48 86 35 89 558 4 510 0 564 -49 623 -17 21 -39 37 -49
37 -10 0 -22 5 -25 10 -4 6 -172 10 -471 10 l-464 0 0 -910z m804 518 c39 -34
46 -98 45 -407 -1 -319 -6 -355 -59 -385 -32 -19 -56 -21 -272 -24 -131 -3
-249 -1 -263 2 l-25 6 0 415 0 415 274 0 c271 0 275 0 300 -22z"/>
<path d="M7550 1160 l0 -910 459 0 c446 0 460 1 498 21 72 38 68 -15 71 804 2
407 0 773 -3 812 -8 88 -32 129 -95 160 -44 22 -52 22 -487 23 l-443 0 0 -910z
m785 508 c15 -18 26 -46 30 -80 3 -29 5 -302 3 -606 l-3 -554 -28 -24 -28 -24
-267 2 -267 3 -3 658 -2 658 271 -3 271 -3 23 -27z"/>
<path d="M8810 1160 l0 -910 120 0 120 0 0 910 0 910 -120 0 -120 0 0 -910z"/>
<path d="M9390 2061 c-8 -4 -28 -15 -45 -23 -18 -9 -40 -35 -55 -64 l-25 -49
0 -545 c0 -510 1 -547 18 -572 34 -49 56 -52 432 -55 340 -4 351 -4 368 -24
14 -18 17 -42 17 -154 0 -73 -3 -141 -6 -149 -15 -38 -39 -41 -439 -46 l-390
-5 -3 -62 -3 -63 479 0 c523 0 519 0 559 58 16 24 18 52 21 226 4 230 -1 276
-33 314 l-23 27 -367 5 -367 5 -24 28 -24 28 0 330 c0 354 3 379 51 413 20 14
57 16 257 16 245 0 278 -5 298 -47 5 -10 11 -137 14 -283 l5 -265 108 -3 108
-3 -3 423 c-2 335 -6 428 -17 448 -21 40 -63 80 -82 80 -10 0 -21 5 -24 10 -7
12 -782 13 -805 1z"/>
<path d="M10530 1160 l0 -910 125 0 125 0 0 250 0 250 290 0 290 0 0 -250 0
-250 120 0 120 0 0 910 0 910 -120 0 -120 0 0 -589 c0 -528 -2 -589 -16 -595
-20 -8 -528 -8 -548 0 -14 6 -16 67 -16 595 l0 589 -125 0 -125 0 0 -910z"/>
<path d="M11860 1355 l0 -716 128 3 127 3 3 713 2 712 -130 0 -130 0 0 -715z"/>
<path d="M11860 380 l0 -130 130 0 130 0 0 124 c0 104 -3 125 -16 130 -9 3
-67 6 -130 6 l-114 0 0 -130z"/>
</g>
</svg>
